<svg xmlns="http://www.w3.org/2000/svg">
    <symbol id="icon-starsector" viewBox="0 0 32 32">
        <g fill="#050505">
            <path d="M21 56 c0 -0.5 -2.2 -1 -5 -1 l-5 0 0 -5 0 -5 4 0 c2.2 0 4 0.5 4 1 0 0.6 6 1 16 1 l16 0 0 3.5 c0 3.4 -0.1 3.5 -4 3.5 -2.9 0 -4 0.4 -4 1.5 0 1.2 -1.9 1.5 -11 1.5 -6.7 0 -11 -0.4 -11 -1z"/>
            <path d="M52.3 27.5 c-0.7 -0.8 -1.3 -3 -1.3 -5 0 -3.4 0.1 -3.5 3.6 -3.5 4.5 0 6.4 1.9 6.4 6.4 0 3.5 -0.1 3.6 -3.7 3.6 -2.1 -0.1 -4.4 -0.7 -5 -1.5z"/>
            <path d="M7 14 l0 -5 7.5 0 7.5 0 0 3.4 c0 6.2 -0.5 6.6 -8.1 6.6 l-6.9 0 0 -5z"/>
            <path d="M45.8 16.4 c-2.5 -1.3 -2.8 -2 -2.8 -6.4 l0 -5 6 0 6 0 0 6.5 0 6.5 -3.2 0 c-1.8 -0.1 -4.5 -0.8 -6 -1.6z"/>
            <path d="M27 11.1 c0 -2.2 0.5 -4.2 1.3 -4.4 0.6 -0.3 -0.3 -0.6 -2 -0.6 -3 -0.1 -3.3 -0.4 -3.3 -3.1 0 -2.9 0.2 -3 4.5 -3 4.1 0 4.5 0.2 4.5 2.5 0 2.1 0.5 2.5 3 2.5 2.6 0 3 0.4 3 2.8 0 6.2 -0.8 7.2 -6.1 7.2 l-4.9 0 0 -3.9z"/>
        </g>
        <g fill="#0e0e10">
            <path d="M11.8 56 c-0.7 -1.7 -2.1 -3 -3 -3 -1 0 -2.2 -0.9 -2.8 -1.9 -1.3 -2.5 -1.3 -8.1 0 -8.1 0.6 0 1 -0.7 1 -1.5 0 -2.5 4.6 -6.5 7.5 -6.5 1.4 0 2.5 -0.4 2.5 -1 0 -0.5 -2.2 -1 -5 -1 l-5 0 0 -10 c0 -8.2 0.3 -10 1.5 -10 0.8 0 1.5 0.7 1.5 1.5 0 2.3 7.6 2.1 8.5 -0.2 0.3 -1 0.1 -1.9 -0.4 -2.1 -0.6 -0.2 -1.1 -1.5 -1.1 -2.8 0 -2.2 0.4 -2.4 5 -2.4 2.8 0 5 -0.4 5 -1 0 -0.6 2.7 -1 6 -1 l6 0 0 4 0 4 -4.9 0 c-3.4 0 -5.1 0.4 -5.5 1.5 -0.3 0.9 -1.9 1.5 -4.1 1.5 -2.7 0 -3.5 0.4 -3.5 1.8 0 1 -0.4 2.2 -0.9 2.7 -1 1.1 -1.4 3.5 -1.2 8.2 0.1 3.2 0.2 3.2 6.1 3.9 l6 0.7 0 3.8 c0 3.3 -0.4 4 -2.5 4.5 -1.4 0.3 -3.9 0.4 -5.6 0 -3.8 -0.7 -7.6 2.4 -8.5 7.2 -0.6 3.1 -0.5 3.2 2.5 3.2 3.6 0 4.2 -1.6 0.9 -2.3 -1.3 -0.2 -0.2 -0.5 2.5 -0.6 2.6 0 4.7 -0.5 4.7 -1.1 0 -0.5 2.3 -1 5 -1 4.3 0 5 0.3 5 2 0 1.1 0.7 2 1.5 2 0.8 0 1.5 0.7 1.5 1.5 0 0.8 0.5 1.5 1 1.5 0.6 0 1 -0.7 1 -1.5 0 -0.8 0.7 -1.6 1.5 -1.6 5.7 -0.5 8.3 -0.4 10.8 0.4 2.2 0.7 2.7 1.5 2.7 4.3 l0 3.4 -20.9 0 -20.9 0 -1.4 -3z m22.2 -4 c0 -1.1 -0.4 -2 -1 -2 -0.5 0 -1 0.5 -1 1 0 0.6 -0.9 1 -2 1 -1.1 0 -2 -0.4 -2 -1 0 -0.5 -1.3 -1 -3 -1 -3.3 0 -3.6 0.4 -1.7 2.5 0.7 0.8 3.1 1.4 6 1.5 4 0 4.7 -0.3 4.7 -2z m0.3 -42 c0.3 -1.3 0 -2 -1 -2 -0.8 0 -1.1 0.5 -0.8 1 0.3 0.6 -0.1 1 -0.9 1 -0.9 0 -1.6 0.5 -1.6 1 0 1.9 3.8 1 4.3 -1z"/>
            <path d="M50 42.5 c0 -3.5 0 -3.5 4.5 -3.5 4.5 0 4.5 0 4.5 3.5 0 3.5 0 3.5 -4.5 3.5 -4.5 0 -4.5 0 -4.5 -3.5z"/>
            <path d="M22 27.1 c0 -5 0.9 -6.1 5.1 -6.1 l3.9 0 0 4.5 0 4.5 -4.5 0 c-4.3 0 -4.5 -0.1 -4.5 -2.9z"/>
            <path d="M50.6 24.4 c-0.9 -6.8 -0.8 -10.6 0.4 -9.9 0.6 0.3 1 0.1 1 -0.4 0 -0.7 2.4 -1.1 6 -1.1 l6 0 0 4 c0 2.7 -0.4 4 -1.3 4 -1.4 0 -3.7 4 -3.7 6.5 0 1.1 -1.2 1.5 -3.9 1.5 -3.8 0 -3.8 0 -4.5 -4.6z m7.4 1 c0 -0.3 -0.7 -1.2 -1.5 -2.1 -2 -1.9 -3.2 -1 -1.4 1.1 1.4 1.5 2.9 2.1 2.9 1z"/>
            <path d="M35 23 l0 -4 6.5 0 6.5 0 0 4 0 4 -6.5 0 -6.5 0 0 -4z"/>
        </g>
        <g fill="#171717">
            <path d="M31 57.6 c0 -0.7 0.9 -1.6 1.9 -1.9 1.4 -0.3 1.8 -1.1 1.4 -2.6 -0.4 -1.5 -0.1 -2.1 1.1 -2.1 0.9 0 1.6 -0.8 1.6 -2 0 -1.7 0.7 -2 4.4 -2 2.6 0 5.1 -0.6 6 -1.5 0.8 -0.8 2.8 -1.5 4.5 -1.5 2.9 0 3.1 0.2 3.1 4 0 4.2 0.3 4 -7.5 5.6 -1.6 0.3 -3.8 0.6 -4.7 0.7 -2 0.2 -1.3 1.7 0.8 1.7 0.8 0 1.4 0.7 1.4 1.5 0 1.2 -1.4 1.5 -7 1.5 -5.3 0 -7 -0.3 -7 -1.4z m8.8 -4.9 c0.2 -1.5 -0.1 -2.7 -0.7 -2.7 -0.6 0 -1.1 0.6 -1.1 1.4 0 0.8 -0.3 2.2 -0.7 3.2 -0.4 1.2 -0.2 1.5 0.8 1.2 0.8 -0.2 1.5 -1.7 1.7 -3.1z"/>
            <path d="M61 51.5 c0 -2.5 -0.4 -4.5 -1 -4.5 -0.5 0 -1 -1.8 -1 -4 0 -3.9 -0.1 -4 -3.5 -4 -2.4 0 -3.5 -0.5 -3.5 -1.5 0 -0.8 -0.4 -1.5 -1 -1.5 -0.5 0 -1 -1.1 -1 -2.5 0 -1.6 -0.6 -2.5 -1.5 -2.5 -0.8 0 -1.5 -0.9 -1.5 -2 0 -1.7 -0.7 -2 -4.5 -2 -4.9 0 -6.3 -2.2 -2.2 -3.5 l2.2 -0.8 -2.3 -0.4 c-3.7 -0.7 -1.9 -2.8 2.6 -3.1 3.7 -0.3 4.2 -0.1 4.2 1.7 0 1.7 0.6 2.1 2.9 2.1 2 0 3.1 -0.6 3.4 -1.7 0.3 -1 0.5 -0.3 0.6 1.5 0.1 2.5 0.5 3.2 2.1 3.2 1.1 0 2 -0.4 2 -1 0 -0.5 -0.4 -1 -0.9 -1 -0.6 0 -0.9 -0.9 -0.8 -2 0.1 -1.1 0.5 -2 0.9 -2 0.4 0 0.8 -0.9 0.8 -2 0 -1.5 -0.7 -2 -2.5 -2 -1.6 0 -2.5 0.6 -2.5 1.5 0 2.2 -3.1 1.8 -3.7 -0.5 -0.5 -1.9 -1.4 -2 -13.7 -2.1 -7.2 -0.1 -14.1 0 -15.3 0.1 -1.7 0.1 -2.1 -0.3 -1.7 -1.4 0.5 -1.3 -0.2 -1.6 -4 -1.6 -3.4 0 -4.6 0.4 -4.6 1.5 0 0.8 -0.7 1.5 -1.5 1.5 -1.1 0 -1.5 -1.1 -1.5 -4 0 -2.9 0.4 -4 1.5 -4 0.8 0 1.5 -0.4 1.5 -1 0 -0.6 3.8 -1 9.5 -1 9.5 0 9.5 0 9.5 -2.5 0 -2.3 0.3 -2.5 5 -2.5 4.7 0 5 0.2 5 2.5 l0 2.5 12.5 0 12.5 0 0 25.5 c0 22 -0.2 25.5 -1.5 25.5 -1.1 0 -1.5 -1.2 -1.5 -4.5z m-9 -40 c0 -3.2 -0.2 -3.5 -3 -3.5 -4 0 -4.1 3.3 -0.2 5.4 1.5 0.8 2.8 1.5 3 1.6 0.1 0 0.2 -1.6 0.2 -3.5z m-26.9 0 c0 -0.5 -1.2 -1.1 -2.6 -1.3 -1.8 -0.2 -2.5 0.1 -2.5 1.3 0 1.2 0.7 1.5 2.5 1.3 1.4 -0.2 2.6 -0.7 2.6 -1.3z m9.5 -0.9 c2.1 -2.1 1.8 -2.6 -1.6 -2.6 -2.3 0 -3 0.4 -3 2 0 2.3 2.5 2.7 4.6 0.6z"/>
            <path d="M12 46.8 c0 -1.8 -0.3 -4.4 -0.7 -5.7 -0.6 -2.2 -0.4 -2.3 2 -1.7 2.5 0.6 2.6 0.5 2 -2.9 -0.6 -3.4 -0.5 -3.5 3 -3.5 1.9 0 4.2 0.3 5.1 0.6 2.6 1 1.8 2.7 -0.9 2.2 -1.4 -0.3 -2.5 -0.1 -2.5 0.3 0 0.5 1.1 1.1 2.5 1.5 1.4 0.3 2.5 1.2 2.5 2 0 0.8 -1 1.4 -2.5 1.4 -2.3 0 -2.5 0.4 -2.5 4.5 0 3.8 -0.3 4.5 -1.9 4.5 -1.1 0 -2.2 -0.6 -2.5 -1.2 -0.5 -1 -0.7 -1 -1.2 0 -1.1 2.3 -2.4 1.2 -2.4 -2z"/>
        </g>
        <g fill="#0d1426">
            <path d="M13 31.5 c0 -0.8 0.8 -1.5 1.8 -1.5 1 0 1.3 -0.3 0.6 -0.8 -0.6 -0.4 -1.4 -1.6 -1.8 -2.7 -0.5 -1.8 -0.1 -2.1 2.9 -2.3 l3.5 -0.3 0 4.6 c0 4.5 0 4.5 -3.5 4.5 -2.4 0 -3.5 -0.5 -3.5 -1.5z"/>
            <path d="M29 26.5 c0 -3.3 0.2 -3.5 3.3 -3.5 1.7 0 4.9 0.3 7 0.6 3.3 0.6 3.7 1 3.7 3.5 l0 2.9 -7 0 -7 0 0 -3.5z"/>
            <path d="M48.5 19 l-0.7 -3 -11.8 0 c-9.2 0 -12 0.3 -13 1.5 -0.7 0.8 -2.9 1.5 -4.9 1.5 -2.6 0 -3.2 -0.3 -2.1 -1 0.8 -0.5 2 -2.4 2.7 -4.2 0.6 -1.8 1.2 -2.8 1.2 -2.2 0.1 0.8 3.9 0.9 12.6 0.6 10.6 -0.4 13.2 -0.2 16.5 1.3 2.5 1.1 4 2.5 4 3.6 0 0.9 0.3 2.4 0.6 3.3 0.5 1.2 0 1.6 -1.9 1.6 -2 0 -2.7 -0.6 -3.2 -3z"/>
        </g>
        <g fill="#1f1e1e">
            <path d="M35 57 c-3.6 -0.6 -2.6 -0.7 5 -0.8 6.5 -0.1 9 0.1 8 0.8 -1.7 1.1 -6.1 1.1 -13 0z"/>
            <path d="M8.8 54.6 c-1 -0.7 -1.8 -2.3 -1.8 -3.5 0 -1.1 -0.4 -2.1 -1 -2.1 -0.6 0 -1 -7.3 -1 -20 0 -12.7 0.4 -20 1 -20 0.6 0 1 -0.9 1 -2 0 -1.7 0.7 -2 4.5 -2 3.3 0 4.5 0.4 4.5 1.5 0 0.8 -0.7 1.5 -1.5 1.5 -0.8 0 -1.5 0.5 -1.5 1 0 0.6 -0.7 1 -1.5 1 -1.1 0 -1.5 1.1 -1.5 4 0 3.9 0.1 4 3.3 4 1.8 0 3.8 -0.5 4.5 -1.2 0.9 -0.9 1.2 -0.4 1.2 2.5 0 3.4 -0.2 3.7 -2.9 3.7 -2.5 0 -3.1 0.5 -3.6 3 -0.4 1.7 -1.1 2.8 -1.6 2.4 -0.5 -0.3 -0.9 0 -0.9 0.5 0 0.6 1.1 1.1 2.5 1.1 1.6 0 2.5 0.6 2.5 1.5 0 1 1 1.5 3 1.5 3.1 0 4.1 1.6 1.5 2.6 -0.8 0.4 -1.5 1 -1.5 1.5 0 0.5 0.7 0.9 1.5 0.9 1.7 0 1.9 1.8 0.6 3.9 -0.6 0.9 -1.8 1.1 -3.5 0.7 -1.4 -0.3 -2.6 -0.2 -2.6 0.3 0 0.5 -0.3 1.6 -0.6 2.5 -0.4 1.2 0 1.6 1.5 1.6 1.2 0 2.1 -0.4 2.1 -1 0 -1.4 4.2 -1.2 6.3 0.4 2.1 1.6 2.2 3.6 0.3 3.6 -0.8 0 -1.7 0.6 -2 1.3 -0.5 1 -0.7 1 -1.2 0 -0.3 -0.7 -1.4 -1.3 -2.5 -1.3 -1 0 -1.9 -0.4 -1.9 -1 0 -0.5 -0.4 -1 -1 -1 -0.5 0 -1 1.1 -1 2.4 0 1.4 0.5 2.8 1 3.1 0.6 0.3 1 1 1 1.6 0 1.4 -5.2 1 -7.2 -0.5z m3.2 -8.5 c0 -3 0.6 -4.4 2.2 -5.5 1.2 -0.9 1.9 -1.8 1.6 -2.2 -1 -0.9 -5.8 4.2 -5.8 6.1 0 0.8 -0.5 1.5 -1 1.5 -0.7 0 -0.7 0.6 0 2 1.7 3.2 3 2.3 3 -1.9z m3 -24.4 c0.8 -0.3 0 -0.6 -1.7 -0.6 -2.7 -0.1 -3.3 0.3 -3.3 2.1 0 1.9 0.2 2 1.8 0.6 0.9 -0.9 2.4 -1.8 3.2 -2.1z"/>
            <path d="M41.7 54.4 c-0.4 -0.4 -0.7 -1.6 -0.7 -2.6 0 -1 -0.7 -1.8 -1.5 -1.8 -0.8 0 -1.5 0.9 -1.5 2 0 1.3 -0.7 2 -2 2 -1.3 0 -2 -0.7 -2 -1.9 0 -1.1 -0.8 -2.2 -1.7 -2.4 -1.7 -0.4 -1.7 -0.5 0 -0.6 0.9 0 1.7 -0.5 1.7 -1.1 0 -0.5 1.6 -1 3.5 -1 1.9 0 3.5 0.5 3.5 1 0 0.6 1.4 1 3 1 2.1 0 3 -0.5 3 -1.6 0 -2.8 2.7 -4.4 7.4 -4.4 l4.6 0 0 4.5 c0 4.9 -0.1 5 -9 5.9 -2.5 0.2 -5.2 0.7 -6.1 1 -0.8 0.4 -1.8 0.3 -2.2 0z m5.3 -3.7 c0.9 -0.3 0.3 -0.6 -1.2 -0.6 -2 -0.1 -2.8 0.4 -2.8 1.5 0 1.2 0.4 1.4 1.3 0.7 0.6 -0.6 1.9 -1.3 2.7 -1.6z"/>
            <path d="M25 40 c0 -0.6 0.7 -1.3 1.5 -1.6 0.8 -0.4 1.5 -1 1.5 -1.5 0 -0.5 -0.7 -0.9 -1.5 -0.9 -0.8 0 -1.5 -0.7 -1.5 -1.5 0 -1.1 1.1 -1.5 4 -1.5 l4 0 0 4 0 4 -4 0 c-2.2 0 -4 -0.5 -4 -1z"/>
            <path d="M37 37 l0 -4 5.5 0 5.5 0 0 3.4 c0 3.7 -1.5 4.6 -7.7 4.6 -3.2 0 -3.3 -0.2 -3.3 -4z"/>
            <path d="M49 27.1 c0 -3.7 0.2 -4.1 2.5 -4.1 2 0 2.5 0.5 2.5 2.4 0 1.3 0.6 2.6 1.3 2.9 1.8 0.6 0.5 1.6 -3.1 2.3 -3.2 0.6 -3.2 0.6 -3.2 -3.5z"/>
            <path d="M25 28 c0 -0.5 0.7 -1 1.5 -1 0.8 0 1.5 -0.7 1.5 -1.5 0 -1.8 -1.6 -2 -2.3 -0.2 -0.3 0.6 -0.6 0 -0.6 -1.5 l-0.1 -2.8 10.3 0.2 c5.6 0.1 8.5 0.3 6.5 0.5 -4.8 0.5 -5 2.3 -0.3 2.3 3.1 0 3.5 0.3 3.5 2.5 l0 2.5 -10 0 c-6 0 -10 -0.4 -10 -1z"/>
            <path d="M57.3 21.5 c-1 -0.9 -1.3 -1.4 -0.5 -1.5 0.6 0 1.2 -0.9 1.2 -2 0 -1.1 0.5 -2 1 -2 0.6 0 1 0.9 1 2 0 1.1 0.5 2 1 2 1.5 0 1.2 1.7 -0.4 2.3 -0.8 0.3 -2.2 -0.1 -3.3 -0.8z"/>
            <path d="M55 12.5 c0 -0.9 -0.6 -1.2 -1.5 -0.9 -0.8 0.4 -1.5 0.1 -1.5 -0.5 0 -0.7 2 -1.1 4.9 -1.1 4.4 0 5 0.2 4.8 2 -0.1 1.6 -0.8 2 -3.4 2 -2.2 0 -3.3 -0.5 -3.3 -1.5z"/>
            <path d="M52.8 7.3 c2.3 -0.2 5.9 -0.2 8 0 2 0.2 0.1 0.4 -4.3 0.4 -4.4 0 -6.1 -0.2 -3.7 -0.4z"/>
            <path d="M17 3.5 l0 -3.5 7.8 0 7.8 0 0.1 3.5 0.1 3.5 -7.9 0 -7.9 0 0 -3.5z"/>
        </g>
        <g fill="#272422">
            <path d="M5 62.5 c-1.1 -1.3 1.9 -1.5 26.4 -1.5 17.7 0 27.6 -0.4 27.6 -1 0 -0.5 -1.9 -1 -4.1 -1 -3.6 0 -4.1 -0.3 -3.6 -1.9 0.4 -1.5 -0.2 -2.2 -2.4 -3 -3 -1 -3.8 -2.6 -1.6 -3.4 0.9 -0.4 0.9 -0.6 0 -0.6 -2.2 -0.2 -1.4 -3.1 0.7 -3.1 1.6 0 2 -0.7 2 -3.5 0 -3.5 0 -3.5 4.5 -3.5 2.5 0 4.5 -0.4 4.5 -1 0 -0.5 -0.7 -1 -1.5 -1 -1.8 0 -2 -1.6 -0.2 -2.3 0.9 -0.4 0.9 -0.8 -0.2 -1.5 -1.2 -0.9 -1.2 -1.3 -0.2 -2.6 0.8 -0.9 1.6 -2.9 2 -4.6 0.4 -2.1 1 -2.7 1.9 -2.1 0.9 0.5 1.4 4.5 1.7 13.2 0.3 6.8 0.7 13.9 1.1 15.8 0.5 2.8 0 3.9 -2.7 6.7 l-3.3 3.4 -25.7 0 c-21.6 0 -25.9 -0.2 -26.9 -1.5z m49.4 -13.1 c0.9 -0.3 1.6 -1.2 1.6 -2 0 -2.1 -3.4 -1.7 -5.5 0.6 -1.8 1.9 -1.7 2 0.3 2 1.1 0 2.7 -0.3 3.6 -0.6z"/>
            <path d="M34.5 52 c-0.3 -1.1 -1.3 -2 -2.1 -2 -0.8 0 -1.4 -0.7 -1.4 -1.5 0 -1.1 1.1 -1.5 3.6 -1.5 3.3 0 3.6 0.2 3 2.3 -0.3 1.2 -0.6 2.8 -0.6 3.5 0 1.9 -1.8 1.4 -2.5 -0.8z"/>
            <path d="M9 51 c0 -1.9 0.1 -1.9 2 -0.3 1.1 1 2 1.9 2 2 0 0.2 -0.9 0.3 -2 0.3 -1.3 0 -2 -0.7 -2 -2z"/>
            <path d="M12.2 45.8 c0.2 -3.3 0.8 -4.5 2.6 -5.3 1.2 -0.5 2.2 -1.3 2.2 -1.7 0 -0.5 0.5 -0.8 1 -0.8 0.6 0 1 1.6 1 3.5 0 1.9 0.5 3.5 1 3.5 0.6 0 1 1.2 1 2.6 0 2.2 -0.3 2.4 -1.4 1.5 -1.1 -0.9 -1.5 -0.9 -1.9 0.1 -0.4 1 -0.8 1 -1.7 -0.2 -0.9 -1.1 -1.3 -1.2 -1.7 -0.2 -1.1 2.7 -2.4 0.9 -2.1 -3z m4.8 0.3 c0 -1.7 -1.2 -4.1 -2.1 -4.1 -0.5 0 -0.9 1.1 -0.9 2.5 0 1.6 0.6 2.5 1.5 2.5 0.8 0 1.5 -0.4 1.5 -0.9z"/>
            <path d="M50.3 32.3 c-0.7 -0.2 -1.3 -2 -1.3 -3.9 0 -3.1 0.3 -3.4 2.8 -3.3 2.3 0.2 2.4 0.2 0.5 0.6 -3.3 0.6 -2.8 2.3 0.7 2.3 1.7 0 3 0.5 3 1 0 0.6 -0.7 1 -1.5 1 -0.8 0 -1.5 0.7 -1.5 1.5 0 1.5 -0.6 1.7 -2.7 0.8z"/>
            <path d="M22 25 c0 -3.9 0.1 -4 3.5 -4 2.4 0 3.5 0.5 3.5 1.5 0 0.8 -0.6 1.5 -1.4 1.5 -0.8 0 -1.7 0.7 -2 1.6 -0.5 1.3 -0.2 1.5 1.4 1.1 1.3 -0.3 2 0 2 0.9 0 0.9 -1.2 1.4 -3.5 1.4 -3.4 0 -3.5 -0.1 -3.5 -4z"/>
            <path d="M31 22.8 l0 -3.8 5 0 c3.8 0 5 0.4 5 1.5 0 0.8 -0.5 1.5 -1.1 1.5 -0.6 0 -1.8 0.7 -2.6 1.6 -1.2 1.2 -1.3 1.8 -0.4 2.3 0.6 0.4 -0.4 0.7 -2.4 0.7 -3.4 -0.1 -3.5 -0.2 -3.5 -3.8z"/>
            <path d="M57.9 21.9 c-1 -0.6 -0.7 -0.9 1.4 -0.9 2.9 0 3.5 0.5 1.4 1.3 -0.8 0.3 -2 0.1 -2.8 -0.4z"/>
            <path d="M19.7 6.3 c-0.4 -0.3 -0.7 -1.9 -0.7 -3.5 0 -2.6 0.3 -2.8 3.8 -2.8 3.7 0 3.8 0.1 3.9 3.5 0.1 3.3 -0.1 3.5 -3.1 3.5 -1.8 0 -3.6 -0.3 -3.9 -0.7z m2.7 -3.8 c-0.4 -0.8 -1 -1.5 -1.5 -1.5 -0.5 0 -0.9 0.7 -0.9 1.5 0 0.8 0.7 1.5 1.5 1.5 0.9 0 1.2 -0.6 0.9 -1.5z"/>
        </g>
        <g fill="#1c2232">
            <path d="M50 40.8 c0 -9.6 -1.8 -10.8 -15.5 -10.8 -7.5 0 -9.5 -0.3 -9.5 -1.4 0 -0.8 1.1 -1.7 2.5 -2 3.3 -0.8 3.2 -2.4 -0.2 -2.9 -2 -0.3 -1.6 -0.4 1.4 -0.6 6.5 -0.2 10.3 2.2 5.1 3.2 -1.3 0.3 -0.1 0.3 2.7 0.2 2.7 -0.1 5.1 -0.8 5.3 -1.4 0.2 -0.6 1 -1.1 1.8 -1.1 0.8 0 1.4 -0.4 1.4 -1 0 -0.5 1.7 -1 3.9 -1 3 0 4 0.4 4.4 2 0.4 1.5 0 2 -1.4 2 -2.5 0 -2.5 1.7 0 2.5 1.3 0.4 1.7 1.2 1.4 2.5 -0.3 1.1 0 2 0.6 2 0.6 0 1.1 0.7 1.1 1.5 0 0.8 0.5 1.5 1 1.5 0.6 0 1 2 1 4.5 0 4.5 0 4.5 -3.5 4.5 -3.4 0 -3.5 -0.1 -3.5 -4.2z m6 2.2 c0 -0.5 -0.7 -1 -1.5 -1 -0.8 0 -1.5 0.5 -1.5 1 0 0.6 0.7 1 1.5 1 0.8 0 1.5 -0.4 1.5 -1z"/>
            <path d="M21 40.9 c0 -2.5 0.4 -3 2.3 -2.9 4.2 0.4 6.7 0 6.7 -1 0 -0.5 -2.1 -1.1 -4.7 -1.2 -4.7 -0.1 -4.7 -0.1 -0.9 -0.5 2.2 -0.3 5 0.1 6.2 0.7 1.2 0.7 3.8 1.1 5.8 0.8 2 -0.2 3.7 0 3.9 0.5 0.1 0.4 1.4 0.4 2.7 -0.1 3.7 -1.3 5 -0.4 5 3.4 l0 3.4 -13.5 0 -13.5 0 0 -3.1z"/>
            <path d="M13.7 26.3 c-1.4 -1.3 -0.7 -4.3 1.1 -4.4 1.4 0 1.4 -0.2 -0.3 -0.9 -1.1 -0.5 -1.4 -0.9 -0.7 -0.9 0.7 -0.1 2.4 -1.3 3.7 -2.8 l2.4 -2.8 0.1 6.3 c0 6.2 0 6.2 -2.8 6.2 -1.6 0 -3.2 -0.3 -3.5 -0.7z"/>
        </g>
        <g fill="#061c54">
            <path d="M15.2 41.5 c-1.1 -1.2 -1 -1.5 0.3 -1.5 0.8 0 1.5 -0.4 1.5 -1 0 -0.5 0.9 -1 2 -1 1.5 0 2 0.7 2 2.5 0 1.9 -0.5 2.5 -2.2 2.5 -1.3 -0.1 -2.9 -0.7 -3.6 -1.5z"/>
            <path d="M15.3 35.3 c0.9 -0.2 2.5 -0.2 3.5 0 0.9 0.3 0.1 0.5 -1.8 0.5 -1.9 0 -2.7 -0.2 -1.7 -0.5z"/>
            <path d="M48 19.1 c0 -0.5 -0.9 -1.1 -2 -1.4 -2.9 -0.7 -2.7 -4.7 0.3 -4.7 3 0 4.4 1.1 5.6 4.3 1 2.5 0.9 2.7 -1.4 2.7 -1.4 0 -2.5 -0.4 -2.5 -0.9z"/>
            <path d="M19.5 15 c1 -1.1 2.6 -2 3.7 -2 1.1 0 1.8 0.7 1.8 2 0 1.6 -0.7 2 -3.7 2 -3.5 0 -3.6 0 -1.8 -2z"/>
        </g>
        <g fill="#2f2c2b">
            <path d="M2.7 60.2 c-3.5 -3.7 -3.4 -5.2 0.3 -5.2 2.8 0 3 0.2 3 4 0 2.2 -0.1 4 -0.3 4 -0.2 0 -1.5 -1.3 -3 -2.8z"/>
            <path d="M55 60.5 c0 -1.8 0.5 -2.5 2 -2.5 1.3 0 2 -0.7 2 -2 0 -1.5 0.7 -2 2.5 -2 3.3 0 3.2 2.2 -0.2 6 -3.3 3.8 -6.3 4 -6.3 0.5z"/>
            <path d="M45.5 57 c-1.5 -0.7 -1 -0.9 2.5 -1 l4.5 -0.2 -3.7 -1.5 c-4.1 -1.7 -4.8 -2.9 -2 -3.6 1.1 -0.3 0.7 -0.5 -1 -0.6 -2 -0.1 -2.8 0.4 -3.1 2.2 -0.3 1.6 -0.5 1.3 -0.6 -1 -0.1 -2.3 0.3 -3.3 1.4 -3.3 0.8 0 1.5 -0.4 1.5 -1 0 -0.5 1.6 -1 3.7 -1 3.5 0 3.6 0.1 1.9 1.9 -2 2.2 -1.4 4.1 1.2 4 1.4 0 1.3 -0.2 -0.3 -0.8 -1.6 -0.7 -1.3 -0.9 1.8 -1.3 3.7 -0.4 3.7 -0.4 3.7 3.3 0 2.4 -0.5 3.9 -1.6 4.3 -2.2 0.8 -7.5 0.6 -9.9 -0.4z m10.5 -3 c0 -1.1 -0.4 -2 -1 -2 -0.5 0 -1 0.9 -1 2 0 1.1 0.5 2 1 2 0.6 0 1 -0.9 1 -2z"/>
            <path d="M10 54.5 c0 -2 -0.5 -2.5 -2.5 -2.5 -2.2 0 -2.5 -0.4 -2.5 -4 0 -5.1 2.1 -5.3 3.9 -0.5 0.7 1.9 1.6 3.5 2 3.5 0.4 0 2.3 1.4 4.1 3 l3.4 3 -4.2 0 c-3.8 0 -4.2 -0.2 -4.2 -2.5z"/>
            <path d="M13.2 46.8 c-1.5 -1.5 -1.5 -4.1 0 -5.6 1.9 -1.9 3.8 -1.4 3.7 1.1 -0.1 1.6 -0.2 1.8 -0.6 0.5 -0.7 -2.9 -2.3 -2.1 -2.3 1.1 0 2 0.6 3.1 1.8 3.4 1.3 0.4 1.3 0.5 0.2 0.6 -0.9 0 -2.1 -0.4 -2.8 -1.1z"/>
            <path d="M54.3 45.8 c-3.3 -0.8 -3.3 -0.9 -3.3 -6.8 0 -3.3 0.4 -6 1 -6 0.6 0 1 2.5 1 5.5 0 4.2 0.3 5.5 1.5 5.5 0.8 0 1.5 -0.4 1.5 -1 0 -0.5 -0.4 -1 -1 -1 -0.5 0 -0.9 -2.1 -0.9 -4.7 0.1 -2.7 0.3 -4 0.6 -3 0.5 1.8 3.3 2.4 3.3 0.7 0 -0.5 -0.4 -1 -1 -1 -0.5 0 -1 -0.4 -1 -1 0 -0.5 0.7 -1 1.5 -1 0.8 0 1.5 0.7 1.5 1.5 0 0.8 0.7 1.5 1.5 1.5 1.2 0 1.5 1.3 1.5 6 0 4.7 -0.3 6 -1.5 6 -0.8 0 -1.5 -0.6 -1.5 -1.2 0 -0.9 -0.3 -1 -0.8 -0.2 -0.4 0.7 -1.8 0.8 -3.9 0.2z"/>
            <path d="M24.5 42 c-0.4 -0.6 1.2 -1 3.9 -1 2.5 0 4.6 0.5 4.6 1 0 0.6 -1.8 1 -3.9 1 -2.2 0 -4.3 -0.4 -4.6 -1z"/>
            <path d="M37 42.1 c0 -0.6 1.9 -1.1 4.2 -1.1 2.3 0 3.8 -0.3 3.5 -0.6 -0.4 -0.4 -4.2 -0.6 -8.6 -0.5 -4.7 0.1 -8.2 -0.2 -8.6 -0.9 -0.3 -0.5 0.1 -1 0.9 -1 3.1 0 1.5 -2 -1.6 -2.1 -2.4 -0.1 -2.7 -0.3 -1 -0.6 1.2 -0.2 2.2 -0.9 2.2 -1.4 0 -0.5 2.3 -0.9 5 -0.9 2.8 0 5 0.3 5 0.8 0 0.4 1.8 0.6 4.1 0.4 l4 -0.4 -0.3 4.3 c-0.3 4.4 -0.3 4.4 -4.5 4.7 -2.6 0.2 -4.3 -0.1 -4.3 -0.7z m6.5 -5.1 c1.8 -0.8 1.7 -0.9 -0.7 -0.9 -1.6 -0.1 -2.8 0.4 -2.8 0.9 0 1.2 0.8 1.2 3.5 0z"/>
            <path d="M10 33.9 c0 -1.7 2.7 -3.9 4.9 -3.9 1.2 0 2.1 -0.6 2.1 -1.5 0 -0.8 0.7 -1.5 1.5 -1.5 1.1 0 1.5 1.1 1.5 4 l0 4 -5 0 c-2.9 0 -5 -0.5 -5 -1.1z"/>
            <path d="M7.3 24 c0 -4.1 0.2 -5.8 0.4 -3.7 0.2 2 0.2 5.4 0 7.5 -0.2 2 -0.4 0.3 -0.4 -3.8z"/>
            <path d="M10.5 27.7 c-0.8 -1.9 1.8 -5.7 4 -5.7 1.7 0 2.7 2.8 2 5.1 -0.8 2.3 -2.5 2.5 -2.5 0.4 0 -2.1 -1.8 -1.9 -2.3 0.3 -0.4 1.6 -0.4 1.6 -1.2 -0.1z"/>
            <path d="M27 28 c0 -0.5 1.8 -1 4 -1 2.2 0 4 0.5 4 1 0 0.6 -1.8 1 -4 1 -2.2 0 -4 -0.4 -4 -1z"/>
            <path d="M22 23 l0 -4 5.1 0 c5.4 0 7.3 1.2 7.6 4.8 0.2 1.7 -0.2 2.2 -2.2 2.2 -1.4 0 -2.5 -0.4 -2.5 -1 0 -0.5 -1.1 -1 -2.5 -1 -1.6 0 -2.5 0.6 -2.5 1.5 0 0.8 -0.7 1.5 -1.5 1.5 -1.1 0 -1.5 -1.1 -1.5 -4z"/>
            <path d="M48.8 25.3 c-2.2 -0.5 -2.4 -2.9 -0.3 -3.7 0.8 -0.3 1.5 -1.5 1.5 -2.6 0 -1.1 0.3 -2 0.6 -2 1.4 0 3.3 3.6 3.4 6.3 0 2.7 -1 3.1 -5.2 2z"/>
            <path d="M17 20.5 c0 -1.9 0.5 -3.5 1 -3.5 0.6 0 1 1.6 1 3.5 0 1.9 -0.4 3.5 -1 3.5 -0.5 0 -1 -1.6 -1 -3.5z"/>
            <path d="M57.3 21.5 c-1.7 -1.3 -1.6 -1.4 1.5 -1.5 3.3 0 4.3 1.3 1.8 2.3 -0.8 0.3 -2.2 -0.1 -3.3 -0.8z"/>
            <path d="M11.3 20.3 c0.9 -0.2 2.5 -0.2 3.5 0 0.9 0.3 0.1 0.5 -1.8 0.5 -1.9 0 -2.7 -0.2 -1.7 -0.5z"/>
        </g>
        <g fill="#3a3837">
            <path d="M57.1 59.9 c-0.1 -3.8 1 -4.9 4.9 -4.9 1.7 0 1.7 0.2 0.4 3 -0.9 1.7 -2.2 3 -2.9 3 -0.7 0 -1.6 0.6 -1.8 1.3 -0.3 0.6 -0.6 -0.4 -0.6 -2.4z"/>
            <path d="M3 59.5 c0 -0.8 -0.7 -1.5 -1.5 -1.5 -0.9 0 -1.5 -1 -1.5 -2.6 0 -2.1 0.4 -2.5 2.3 -2.2 1.8 0.2 2.3 1 2.5 4.1 0.2 2.1 -0.1 3.7 -0.7 3.7 -0.6 0 -1.1 -0.7 -1.1 -1.5z"/>
            <path d="M11 54.8 c0.1 -3.8 0.2 -4.1 1.4 -2.5 0.7 0.9 1.8 1.7 2.5 1.7 0.6 0 1.1 0.5 1.1 1 0 0.6 0.7 1 1.5 1 0.8 0 1.5 0.7 1.5 1.5 0 1.1 -1.1 1.5 -4 1.5 l-4 0 0 -4.2z"/>
            <path d="M35.3 56.3 c2 -0.2 5.4 -0.2 7.5 0 2 0.2 0.3 0.4 -3.8 0.4 -4.1 0 -5.8 -0.2 -3.7 -0.4z"/>
            <path d="M35 52 c0 -1.1 -0.7 -2 -1.5 -2 -0.8 0 -1.5 -0.7 -1.5 -1.5 0 -1.2 1.4 -1.5 7 -1.5 5.6 0 7 0.3 7 1.5 0 0.8 -0.7 1.5 -1.5 1.5 -0.8 0 -1.5 0.9 -1.5 2 0 1.1 -0.4 2 -1 2 -0.5 0 -1 -0.9 -1 -2 0 -1.3 -0.7 -2 -2 -2 -1.3 0 -2 0.7 -2 2 0 1.1 -0.4 2 -1 2 -0.5 0 -1 -0.9 -1 -2z"/>
            <path d="M19.5 49 c-0.3 -0.5 -1.8 -1.1 -3.3 -1.1 -1.9 -0.1 -2.1 -0.3 -0.9 -0.6 1.5 -0.4 1.7 -1.1 1.2 -3.1 -0.4 -1.5 -0.8 -2.9 -1 -3 -0.9 -0.9 -2.5 1.1 -2.6 3.1 -0.1 1.8 -0.2 1.8 -0.6 0.4 -0.6 -2.3 1.4 -4.7 3.8 -4.7 1.1 0 1.9 -0.4 1.9 -1 0 -0.5 1.2 -0.9 2.8 -0.9 1.5 0.1 2 0.3 1 0.6 -1.4 0.3 -1.6 1.3 -1.1 5.9 0.6 5.1 0.2 6.6 -1.2 4.4z"/>
            <path d="M4 27.1 c0 -9.3 0.3 -17.6 0.6 -18.5 0.4 -1.1 1.8 -1.6 4.8 -1.5 2.2 0.1 3.3 0.3 2.4 0.6 -1 0.2 -1.8 1.3 -1.8 2.4 0 1 -0.4 1.9 -1 1.9 -0.6 0 -1 6 -1 16 0 15.3 -0.1 16 -2 16 -1.9 0 -2 -0.7 -2 -16.9z"/>
            <path d="M33 42 c0 -0.5 1.8 -1 4 -1 2.2 0 4 0.5 4 1 0 0.6 -1.8 1 -4 1 -2.2 0 -4 -0.4 -4 -1z"/>
            <path d="M10 36 c0 -3.9 0.1 -4 3.5 -4 2.8 0 3.5 -0.4 3.5 -2 0 -2.5 2.8 -2.6 4.6 -0.2 0.7 0.9 1.4 2.6 1.4 3.8 0 1.7 -0.7 2.1 -4.1 2.2 -2.8 0.1 -4.7 0.9 -5.9 2.2 -2.5 2.9 -3 2.5 -3 -2z"/>
            <path d="M30 38 c0 -1.1 -0.7 -2 -1.5 -2 -0.8 0 -1.5 -0.7 -1.5 -1.5 0 -1.2 1.6 -1.5 8 -1.5 6.4 0 8 0.3 8 1.5 0 0.8 -0.7 1.5 -1.5 1.5 -0.8 0 -1.5 0.9 -1.5 2 0 1.7 -0.7 2 -5 2 -4.3 0 -5 -0.3 -5 -2z"/>
            <path d="M57.6 35.9 c0.3 -0.6 0.1 -1.5 -0.6 -1.9 -0.9 -0.6 -0.8 -1.4 0.5 -3.4 2.2 -3.3 4.5 -3.4 4.5 -0.2 0 2.8 -1.6 4.3 -2.3 2.4 -0.3 -0.7 -0.6 -0.1 -0.6 1.5 -0.1 1.5 -0.6 2.7 -1.2 2.7 -0.5 0 -0.7 -0.5 -0.3 -1.1z"/>
            <path d="M29 28 c0 -0.6 3.8 -1 9.4 -1 5.3 0 9.8 0.4 10.1 1 0.4 0.6 -3 1 -9.4 1 -6.1 0 -10.1 -0.4 -10.1 -1z"/>
            <path d="M14.5 25 c0.5 -1.6 0.3 -1.9 -1.1 -1.3 -1.2 0.4 -1.5 0.3 -1 -0.5 0.9 -1.6 3.3 -1.5 3.9 0.1 0.3 0.6 0.6 0 0.6 -1.5 0.1 -4.4 2.1 -3.2 2.1 1.2 0 3.6 -0.2 4 -2.6 4 -2.1 0 -2.4 -0.4 -1.9 -2z"/>
            <path d="M31.5 24.7 c-3.1 -3.5 -2.8 -3.7 7 -3.7 7.7 0 9.7 0.3 10.2 1.5 0.7 2 0.3 2.3 -3.5 3.1 -2.1 0.4 -3.2 0.3 -3.2 -0.5 0 -0.6 0.7 -1.1 1.5 -1.1 0.8 0 1.5 -0.4 1.5 -1 0 -0.5 -2.5 -1 -5.5 -1 -3 0 -5.5 0.5 -5.5 1 0 0.6 0.5 1 1 1 0.6 0 1 0.5 1 1 0 1.4 -3.3 1.2 -4.5 -0.3z"/>
        </g>
        <g fill="#082879">
            <path d="M20.6 43.4 c-1.2 -3.2 -0.6 -5.4 1.4 -5.4 1.1 0 2 0.7 2 1.5 0 1.2 1.8 1.5 10.5 1.5 9.8 0 10.5 0.1 10.5 2 0 1.9 -0.7 2 -11.9 2 -9.9 0 -12 -0.3 -12.5 -1.6z"/>
            <path d="M30 39 c0 -0.5 2.3 -1 5 -1 2.8 0 5 0.4 5 0.8 0 0.4 -2.2 0.9 -5 1 -2.8 0.1 -5 -0.2 -5 -0.8z"/>
            <path d="M22.3 35.3 c0.9 -0.2 2.5 -0.2 3.5 0 0.9 0.3 0.1 0.5 -1.8 0.5 -1.9 0 -2.7 -0.2 -1.7 -0.5z"/>
            <path d="M21 27.5 c0 -2.8 0.4 -3.5 2 -3.5 1.1 0 2 0.7 2 1.5 0 1 1 1.5 3 1.5 2.3 0 3 0.4 3 2 0 1.7 -0.7 2 -5 2 l-5 0 0 -3.5z"/>
            <path d="M19.4 15.4 c2.5 -2.2 3.5 -2.4 14.9 -2.4 9.1 0.1 12.7 0.4 14.1 1.5 1.1 0.8 1.8 1.7 1.5 1.9 -0.2 0.2 -7.8 0.6 -16.9 0.8 l-16.4 0.6 2.8 -2.4z"/>
        </g>
        <g fill="#22325a">
            <path d="M47.6 33.4 c-0.3 -0.9 -0.6 -2.6 -0.6 -3.8 0 -2.2 0.2 -2.2 3.5 -1.2 1.9 0.6 3.1 1.2 2.5 1.4 -0.5 0.2 -0.7 1.5 -0.4 2.8 0.5 2.1 0.3 2.4 -1.9 2.4 -1.4 0 -2.8 -0.7 -3.1 -1.6z"/>
            <path d="M21 24.5 l0 -5.5 3.5 0 c2.4 0 3.5 0.5 3.5 1.5 0 0.8 -0.6 1.5 -1.4 1.5 -0.8 0 -1.6 1.3 -1.8 3 -0.4 2.4 -0.1 3 1.4 3 1 0 1.8 0.5 1.8 1 0 0.6 -1.6 1 -3.5 1 l-3.5 0 0 -5.5z"/>
        </g>
        <g fill="#454141">
            <path d="M4.3 61.8 c-0.4 -0.7 -1.3 -2.3 -2 -3.5 -1.1 -2.2 -1 -2.3 2.3 -2.3 2.2 0 3.7 0.6 4 1.5 0.5 1.3 4 1.5 22.5 1.5 17.4 0 21.9 -0.3 21.9 -1.3 0 -2 -2.2 -4.5 -4.5 -5 -1.3 -0.3 -0.9 -0.5 1.2 -0.6 2.3 -0.1 3.3 0.4 3.8 1.9 0.8 2.5 2.5 2.6 2.5 0.1 0 -1.2 -1.1 -2.2 -3.2 -2.9 l-3.3 -1 3.3 -0.1 c2.5 -0.1 3.2 -0.5 3.2 -2.1 0 -2.6 -2.5 -2.6 -5.8 0.1 -1.9 1.5 -2.8 1.7 -3.1 0.8 -0.2 -0.7 0.1 -1.5 0.8 -1.7 0.6 -0.2 1.1 -1.5 1.1 -2.8 0 -1.7 0.6 -2.4 1.9 -2.4 1.1 0 2.1 0.5 2.3 1.2 0.2 0.6 1.2 0.9 2.1 0.5 1.6 -0.6 1.8 -1.5 2.2 -10.7 0.1 -3.3 4.5 -4.3 4.5 -1.1 0 2.3 -1.5 2.8 -2.3 0.9 -0.8 -2 -0.8 3.3 0.1 7.7 l0.7 4 0.6 -5 c0.5 -3.9 0.6 -2.9 0.7 4.7 0.2 6.7 0.6 9.8 1.5 10.1 0.8 0.3 0.5 1.2 -1.1 2.9 -1.2 1.3 -1.9 2.8 -1.5 3.1 0.3 0.4 -0.1 0.7 -1 0.7 -1 0 -1.7 0.5 -1.7 1 0 1.6 -52.7 1.3 -53.7 -0.2z m54.4 -14 c-0.2 -1.8 -0.4 -0.6 -0.4 2.7 0 3.3 0.2 4.8 0.4 3.3 0.2 -1.5 0.2 -4.2 0 -6z"/>
            <path d="M4 45 c0 -5.3 0.3 -7 1.4 -7 1.6 0 2.6 3 2.6 7.8 0 1.7 0.4 3.2 0.9 3.2 0.5 0 1.1 0.7 1.5 1.5 0.4 1.2 -0.3 1.5 -2.9 1.5 l-3.5 0 0 -7z"/>
            <path d="M42.5 41.5 c1.7 -0.8 2.4 -1.4 1.8 -1.5 -0.7 0 -1.3 -0.6 -1.3 -1.4 0 -0.8 0.6 -1.7 1.3 -1.9 0.6 -0.3 0 -0.6 -1.5 -0.6 -4.4 -0.1 -3.2 -2.1 1.3 -2.1 l4 0 -0.3 4.3 c-0.3 4.2 -0.3 4.2 -4.3 4.4 l-4 0.2 3 -1.4z"/>
            <path d="M10.1 36.8 c0 -1.8 0.3 -2.7 0.6 -2 0.2 0.6 1.1 1.2 1.9 1.2 1.8 0 1.8 0.8 0 2.6 -2.1 2.1 -2.6 1.7 -2.5 -1.8z"/>
            <path d="M51 35.5 c0 -1.9 0.5 -3.5 1 -3.5 0.6 0 1 1.6 1 3.5 0 1.9 -0.4 3.5 -1 3.5 -0.5 0 -1 -1.6 -1 -3.5z"/>
            <path d="M15 35 c0 -0.5 0.7 -1 1.5 -1 0.8 0 1.5 0.5 1.5 1 0 0.6 -0.7 1 -1.5 1 -0.8 0 -1.5 -0.4 -1.5 -1z"/>
            <path d="M18.7 33 c-0.9 -1.3 -1.7 -3.4 -1.8 -4.5 0 -1.1 -0.3 -1.4 -0.6 -0.7 -0.8 1.9 -2.3 1.4 -2.3 -0.8 0 -1.1 0.7 -2.3 1.5 -2.6 0.8 -0.4 1.5 -1.2 1.5 -2 0 -0.8 0.7 -1.4 1.6 -1.4 1.3 0 1.5 0.9 1.2 5 -0.1 2.8 0.1 5.1 0.6 5.3 0.4 0.1 0.7 1.2 0.4 2.2 -0.3 1.9 -0.5 1.8 -2.1 -0.5z"/>
            <path d="M6 10.2 c0 -5.2 1.8 -6.2 10.5 -6.2 7.2 0 7.7 -0.1 7.2 -2 -0.5 -1.9 0 -2 7.4 -2 7.2 0 7.9 0.2 7.9 2 0 1.9 0.7 2 11 2 7.5 0 11 -0.4 11 -1.1 0 -0.8 0.5 -0.8 1.5 0.1 0.8 0.7 1.5 2.1 1.5 3.1 0 1.8 -1.2 1.9 -26.6 1.9 l-26.7 0 -2.3 2.8 -2.4 2.7 0 -3.3z m24 -7.2 c0 -0.5 -0.9 -1 -2 -1 -1.1 0 -2 0.5 -2 1 0 0.6 0.9 1 2 1 1.1 0 2 -0.4 2 -1z m6 0 c0 -0.5 -0.9 -1 -2 -1 -1.1 0 -2 0.5 -2 1 0 0.6 0.9 1 2 1 1.1 0 2 -0.4 2 -1z"/>
        </g>
        <g fill="#113287">
            <path d="M39 43.6 c0 -0.8 1.3 -1.7 3 -2.1 1.6 -0.4 2.8 -1.2 2.7 -1.8 -0.1 -0.6 0.6 -1.3 1.6 -1.5 1.4 -0.3 1.7 0.3 1.7 3.2 0 3.6 0 3.6 -4.5 3.6 -3.2 0 -4.5 -0.4 -4.5 -1.4z"/>
            <path d="M17 42.1 c0 -2.5 1.4 -4.1 3.6 -4.1 1.3 0 2.4 0.4 2.4 0.9 0 0.5 0.7 1.7 1.6 2.5 1.4 1.5 1.1 1.6 -3 1.6 -2.5 0 -4.6 -0.4 -4.6 -0.9z"/>
            <path d="M48.4 35.1 c-0.8 -3.6 -2.3 -4.1 -14.1 -4.1 -7.3 0 -9.3 -0.3 -9.3 -1.4 0 -2 3.2 -2.6 13.7 -2.6 7.1 0 9.5 0.4 10.5 1.5 0.7 0.9 1.9 2.2 2.6 3 0.6 0.7 1.2 2.5 1.2 3.9 0 3.9 -3.9 3.6 -4.6 -0.3z"/>
            <path d="M46.3 24.3 c0.9 -0.2 2.5 -0.2 3.5 0 0.9 0.3 0.1 0.5 -1.8 0.5 -1.9 0 -2.7 -0.2 -1.7 -0.5z"/>
            <path d="M17 20.1 c0 -2.7 2.9 -6.1 5.2 -6.1 1.3 0 0.8 5.4 -0.6 7.3 -2.1 2.8 -4.6 2.2 -4.6 -1.2z"/>
            <path d="M28 15.6 c0 -1.7 3.7 -2.7 6.8 -1.9 4.1 1 2.6 3.3 -2.3 3.3 -3.2 0 -4.5 -0.4 -4.5 -1.4z"/>
        </g>
        <g fill="#4e4d4d">
            <path d="M19.2 48.8 c-1.8 -1.8 -1.4 -3.8 0.7 -3.8 3.3 0 5.1 1.1 5.1 3.1 0 2.2 -3.8 2.7 -5.8 0.7z"/>
            <path d="M35.8 42.3 c6.5 -0.3 9.2 -0.7 9.1 -1.6 -0.4 -3 0.2 -4.7 1.6 -4.7 1 0 1.5 1.1 1.5 3.5 l0 3.5 -10.7 -0.2 -10.8 -0.2 9.3 -0.3z"/>
            <path d="M10 38 c0 -1.1 0.5 -2 1 -2 0.6 0 1 0.9 1 2 0 1.1 -0.4 2 -1 2 -0.5 0 -1 -0.9 -1 -2z"/>
            <path d="M30 39.1 c0 -0.5 1.2 -1.4 2.8 -1.9 2.5 -1 2.4 -1.1 -1.8 -1.2 l-4.5 -0.2 3 -1.3 c3.4 -1.6 9.5 -2 9.5 -0.6 0 0.5 1 1.2 2.3 1.4 1.3 0.3 0.8 0.5 -1.5 0.6 -3.8 0.1 -5.5 2.1 -1.8 2.1 1.1 0 2 0.4 2 0.8 0 0.4 -2.2 0.9 -5 1 -2.7 0.1 -5 -0.2 -5 -0.7z"/>
            <path d="M19.5 34 c-1.8 -2 -1.7 -2 1.8 -2 3 0 3.7 0.4 3.7 2 0 1.3 -0.7 2 -1.8 2 -1.1 0 -2.7 -0.9 -3.7 -2z"/>
            <path d="M30 23 c0 -0.5 -0.7 -1 -1.5 -1 -0.8 0 -1.5 -0.7 -1.5 -1.5 0 -1.1 1.2 -1.5 5 -1.5 3.8 0 5 0.4 5 1.5 0 0.8 -0.7 1.5 -1.5 1.5 -0.8 0 -1.5 0.5 -1.5 1 0 0.6 -0.9 1 -2 1 -1.1 0 -2 -0.4 -2 -1z"/>
        </g>
        <g fill="#0b3ab3">
            <path d="M47.2 20 c-1.8 -2.9 -1.6 -6.4 0.4 -5.6 0.9 0.3 1.9 0.6 2.3 0.6 0.8 0 3.1 4.5 3.1 6 0 1.8 -4.5 1 -5.8 -1z"/>
            <path d="M20 16 c0.6 -1.2 2.1 -2 3.5 -2 1.8 0 2.5 0.5 2.5 2 0 1.6 -0.7 2 -3.5 2 -3.3 0 -3.5 -0.2 -2.5 -2z"/>
        </g>
        <g fill="#39527a">
            <path d="M45 23.6 c0 -0.9 -0.7 -1.6 -1.5 -1.6 -0.8 0 -1.5 -0.7 -1.5 -1.5 0 -1 1.1 -1.5 3.5 -1.5 2.6 0 3.5 -0.4 3.5 -1.7 0 -1.4 0.3 -1.3 2.1 0.5 1.1 1.3 1.9 3.2 1.7 4.5 -0.2 1.8 -1.1 2.3 -4 2.5 -2.9 0.2 -3.8 0 -3.8 -1.2z"/>
        </g>
        <g fill="#605b5a">
            <path d="M7.3 54.7 c-2.3 -2.3 -3.3 -8.7 -1.3 -8.7 0.6 0 1 0.7 1 1.5 0 0.8 0.5 1.5 1.1 1.5 1 0 3.3 2.2 7 6.8 1.9 2.3 -5.4 1.3 -7.8 -1.1z"/>
            <path d="M19.4 48.2 c-0.6 -0.4 -1.3 -1.5 -1.7 -2.4 -0.5 -1.4 -0.1 -1.8 1.8 -1.8 2 0 2.5 0.5 2.5 2.5 0 2.6 -0.7 3 -2.6 1.7z"/>
            <path d="M60.7 42.8 c0.8 -4.6 1.3 -4.8 1.3 -0.5 0 2.1 -0.4 3.7 -1 3.7 -0.5 0 -0.7 -1.4 -0.3 -3.2z"/>
            <path d="M58.1 40 l0.1 -4.5 1.1 3.3 c0.7 2.4 0.7 3.6 -0.1 4.4 -0.9 0.9 -1.2 0.1 -1.1 -3.2z"/>
            <path d="M45.4 23.5 c0.4 -1 -0.1 -1.5 -1.4 -1.5 -1.1 0 -2 -0.4 -2 -1 0 -0.5 1.6 -1 3.5 -1 3.1 0 3.5 0.3 3.5 2.5 0 1.9 -0.5 2.5 -2.1 2.5 -1.5 0 -1.9 -0.5 -1.5 -1.5z"/>
            <path d="M57.8 5.9 c-2.5 -1.4 -2.4 -5.9 0 -5.9 2.3 0 5.2 3 5.2 5.3 0 1.9 -2.6 2.2 -5.2 0.6z"/>
            <path d="M1 4.2 c0 -1.4 3.5 -4.2 5.3 -4.2 1.1 0 1.7 0.8 1.7 2.5 0 2.2 -0.4 2.5 -3.5 2.5 -1.9 0 -3.5 -0.4 -3.5 -0.8z"/>
        </g>
        <g fill="#0542dd">
            <path d="M21 42.5 c0 -2.6 0.3 -3.3 1.5 -2.9 0.8 0.4 1.5 1 1.5 1.5 0 0.5 4.7 0.9 10.5 0.9 8.7 0 10.5 -0.3 10.5 -1.5 0 -0.8 0.7 -1.5 1.5 -1.5 1 0 1.5 1.1 1.5 3.5 l0 3.5 -13.5 0 -13.5 0 0 -3.5z"/>
            <path d="M21 28.5 c0 -2.4 0.5 -3.5 1.5 -3.5 0.8 0 1.5 0.7 1.5 1.5 0 1.2 2 1.5 11.6 1.5 10.9 0 15.4 0.9 15.4 3 0 0.6 -6 1 -15 1 l-15 0 0 -3.5z"/>
            <path d="M19.1 17.2 c1.8 -2.8 3.6 -3.2 17 -3.2 10.3 0 11.8 0.2 13.4 2 1.8 2 1.7 2 -9.6 2 -6.3 0 -13.8 0.3 -16.8 0.7 -5.2 0.6 -5.3 0.6 -4 -1.5z"/>
        </g>
        <g fill="#7b7370">
            <path d="M4.8 59.9 c-1.7 -1.8 -1.7 -1.9 1.7 -1.9 1.9 0 3.5 -0.4 3.5 -1 0 -0.5 -0.4 -1 -1 -1 -0.5 0 -1 -1.1 -1 -2.5 0 -2 -0.5 -2.5 -2.5 -2.5 l-2.5 0 0 -21 c0 -18 -0.2 -21 -1.5 -21 -2.1 0 -1.9 -4.3 0.3 -6.3 1 -1 2.2 -1.4 2.5 -1 0.4 0.3 0.7 0.1 0.7 -0.5 0 -0.7 0.7 -1.2 1.5 -1.2 1.8 0 2.1 5 0.3 6.8 -0.9 0.9 -0.7 1.2 1.1 1.2 2.1 0 2.1 0.1 0.7 2.2 -1.3 1.8 -1.6 5.6 -1.6 20.3 l0 18.1 4 3.7 c2.3 2 4.5 3.7 5 3.7 0.6 0 1 0.5 1 1 0 0.6 6.8 1 18.5 1 11.7 0 18.5 -0.4 18.5 -1 0 -0.5 2.1 -1 4.8 -1 l4.7 0 -3.2 3 -3.2 3 -25.3 -0.1 c-23.6 -0.1 -25.4 -0.2 -27 -2z"/>
            <path d="M56.7 54.3 c-0.4 -0.3 -0.7 -2.3 -0.7 -4.4 0 -2.1 -0.6 -3.9 -1.2 -4.2 -0.7 -0.2 -1 -0.8 -0.6 -1.2 0.4 -0.4 1.4 -0.5 2.3 -0.2 1.1 0.5 1.5 2.1 1.5 5.7 0 5.1 -0.1 5.5 -1.3 4.3z"/>
            <path d="M60 49.6 c0 -3 0.5 -5.8 1 -6.1 0.6 -0.4 1 1.7 1 5.4 0 3.4 -0.4 6.1 -1 6.1 -0.5 0 -1 -2.4 -1 -5.4z"/>
            <path d="M58.1 39.5 l0.1 -5 1 3.8 c0.7 2.8 0.7 4.2 -0.1 5 -0.8 0.8 -1.1 -0.2 -1 -3.8z"/>
            <path d="M59 5 c0 -1.1 0.6 -2 1.4 -2 0.7 0 1.6 0.9 1.9 2 0.4 1.5 0 2 -1.4 2 -1.2 0 -1.9 -0.7 -1.9 -2z"/>
            <path d="M17 2 c0 -1.9 0.7 -2 11 -2 10.3 0 11 0.1 11 2 0 1.1 -0.7 2 -1.5 2 -0.8 0 -1.5 -0.7 -1.5 -1.5 0 -0.8 -0.9 -1.5 -2 -1.5 -1.1 0 -2 0.7 -2 1.5 0 0.8 -0.4 1.5 -1 1.5 -0.5 0 -1 -0.7 -1 -1.5 0 -0.8 -0.9 -1.5 -2 -1.5 -1.1 0 -2 0.7 -2 1.5 0 0.8 -0.4 1.5 -1 1.5 -0.5 0 -1 -0.7 -1 -1.5 0 -0.8 -0.9 -1.5 -2 -1.5 -1.1 0 -2 0.7 -2 1.5 0 0.8 -0.7 1.5 -1.5 1.5 -0.8 0 -1.5 -0.9 -1.5 -2z"/>
        </g>
        <g fill="#596ca0">
            <path d="M49 46 c0 -0.5 -1.6 -1 -3.5 -1 -1.9 0 -3.5 -0.4 -3.5 -1 0 -0.5 0.7 -1 1.5 -1 1 0 1.5 -1.1 1.5 -3.5 0 -2.4 -0.5 -3.5 -1.5 -3.5 -0.8 0 -1.5 -0.6 -1.5 -1.4 0 -0.9 1.5 -1.6 4.3 -1.9 5.2 -0.5 6.7 1 6.7 7 0 3.2 0.4 4.3 1.5 4.3 0.8 0 1.5 0.5 1.5 1.1 0 0.6 -0.9 0.8 -2 0.4 -1.1 -0.4 -2 -0.2 -2 0.4 0 0.6 -0.7 1.1 -1.5 1.1 -0.8 0 -1.5 -0.4 -1.5 -1z"/>
        </g>
        <g fill="#225aea">
            <path d="M45.8 33.6 c-2.9 -2.2 -2.3 -4.6 1.2 -4.6 2.4 0 3.3 0.6 4 2.6 0.6 1.4 1 2.7 1 3 0 0.9 -4.6 0.2 -6.2 -1z"/>
            <path d="M44 17 c0 -2.3 3.8 -2.8 5.8 -0.8 2 2 1.4 2.8 -2.3 2.8 -2.8 0 -3.5 -0.4 -3.5 -2z"/>
        </g>
        <g fill="#0f6eff">
            <path d="M17 23.5 c0 -2.5 0.8 -4.4 2.5 -6.1 2.5 -2.5 2.7 -2.5 16.1 -2.2 12.1 0.3 13.7 0.5 15 2.2 0.8 1.1 1.4 3 1.4 4.3 0 1.9 -0.5 2.3 -3 2.3 -1.6 0 -3 -0.4 -3 -1 0 -0.6 -4.3 -1 -11 -1 l-11 0 0 2.5 c0 2.2 -0.4 2.5 -3.5 2.5 -3.3 0 -3.5 -0.2 -3.5 -3.5z"/>
        </g>
        <g fill="#476fd3">
            <path d="M18 46.1 c-1.6 -3 -1.2 -5.9 0.9 -6.6 2.4 -0.7 5.1 0.3 5.1 2 0 0.8 0.8 1.6 1.8 1.8 0.9 0.3 0.2 0.5 -1.5 0.6 -2.6 0.1 -3.3 0.5 -3.3 2.1 0 2.5 -1.6 2.6 -3 0.1z"/>
        </g>
        <g fill="#8d8685">
            <path d="M3.3 58.4 c-4 -3.1 -4.4 -6.4 -1 -6.4 3.1 0 5.7 2.9 5.7 6.3 0 3.3 -0.6 3.3 -4.7 0.1z"/>
            <path d="M55 60 c0 -0.5 -1.3 -1 -2.9 -1 -1.6 0 -3.1 -0.6 -3.5 -1.5 -0.4 -1 0.1 -1.5 1.5 -1.5 2.8 0 1.9 -2.3 -1.2 -3.1 -2.4 -0.7 -2.4 -0.7 0.3 -0.8 1.8 -0.1 3.2 0.6 4 1.9 1 1.5 2.4 2 5.8 2 l4.5 0.1 -2.8 2.4 c-2.9 2.6 -5.7 3.3 -5.7 1.5z"/>
            <path d="M45.8 49.3 c1.5 -0.3 2.2 -1.1 2.2 -2.8 0 -1.3 0.3 -3 0.6 -3.9 0.8 -2 3.4 -2.1 3.4 -0.1 0 0.9 0.9 1.5 2.5 1.5 2.1 0 2.5 0.5 2.4 2.8 -0.1 1.5 -0.3 2 -0.6 1 -0.7 -2.7 -3.1 -2.9 -5.7 -0.3 -1.4 1.4 -3.5 2.4 -4.8 2.4 l-2.3 -0.2 2.3 -0.4z"/>
            <path d="M58 41.6 c0 -1.4 0.5 -2.6 1 -2.6 0.6 0 1 0.9 1 1.9 0 1.1 -0.4 2.3 -1 2.6 -0.6 0.4 -1 -0.5 -1 -1.9z"/>
            <path d="M4.2 9.5 c0.2 -2.5 0 -4.5 -0.3 -4.5 -0.4 0 -0.2 -1.1 0.4 -2.5 1.4 -3 4.7 -3.4 4.7 -0.5 0 1.5 0.7 2 2.5 2 2.5 0 3.7 3 1.3 3 -1.7 0.1 -6.8 4.6 -6.8 6 0 0.5 -0.5 1 -1.1 1 -0.7 0 -1 -1.7 -0.7 -4.5z"/>
            <path d="M57 3.5 c0 -4.1 0.3 -4.2 3 -1.5 2.8 2.8 2.6 5 -0.5 5 -2.2 0 -2.5 -0.4 -2.5 -3.5z"/>
            <path d="M29.7 1.9 c-0.3 -1.3 -0.1 -1.9 0.6 -1.6 1.5 0.5 2.2 3.7 0.9 3.7 -0.5 0 -1.2 -0.9 -1.5 -2.1z"/>
        </g>
        <g fill="#178bff">
            <path d="M17 26 c0 -6.6 1.3 -9 4.8 -8.9 2.7 0 2.7 0.1 0.5 1.1 -1.6 0.8 -2.3 2 -2.2 3.7 0 2.6 0 2.6 1.1 0.4 0.8 -1.7 2 -2.3 4.5 -2.3 1.8 0 3.3 0.5 3.3 1 0 0.6 -1.2 1 -2.6 1 -2.4 0 -2.5 0.3 -2.2 4.3 l0.3 4.2 -3.8 0.3 -3.7 0.3 0 -5.1z"/>
            <path d="M46.4 23.5 c-0.4 -0.8 -1.7 -1.5 -3 -1.5 -1.3 0 -2.4 -0.5 -2.4 -1.1 0 -0.8 1.5 -0.9 4.5 -0.5 3.6 0.6 4.5 0.4 4.5 -0.7 0 -0.9 -1.4 -1.7 -3.5 -2.1 -1.9 -0.4 -3.5 -1.1 -3.5 -1.6 0 -2.1 6.5 -0.2 8.2 2.4 0.4 0.6 0.8 2.3 0.8 3.9 0 2.2 -0.4 2.7 -2.5 2.7 -1.4 0 -2.8 -0.7 -3.1 -1.5z"/>
        </g>
        <g fill="#4277fd">
            <path d="M21 44 c0 -2 0.5 -3 1.5 -3 0.8 0 1.5 0.5 1.5 1 0 0.6 4.2 1 10.6 1 9.7 0 10.6 -0.2 11.1 -2 1 -3.7 3.3 -2.3 3.3 2 l0 4 -14 0 -14 0 0 -3z"/>
            <path d="M18 25.1 c0 -1.1 -0.3 -2.6 -0.6 -3.5 -0.8 -2.1 3.9 -6.6 7.1 -6.6 3.7 0 3.1 1.3 -1.6 3.2 -3.9 1.6 -4.1 2 -3.7 5.3 0.2 1.9 0 3.5 -0.4 3.5 -0.4 0 -0.8 -0.9 -0.8 -1.9z"/>
            <path d="M22 26.1 c0 -0.5 -0.3 -1.6 -0.6 -2.5 -0.4 -1.1 0 -1.6 1.2 -1.6 1.5 0 1.6 -0.2 0.5 -0.9 -1 -0.7 -0.7 -0.9 1.2 -0.8 2.8 0.2 3.8 1.7 1.2 1.7 -0.9 0 -1.5 0.9 -1.5 2.5 0 1.4 -0.4 2.5 -1 2.5 -0.5 0 -1 -0.4 -1 -0.9z"/>
            <path d="M46 23.5 c0 -0.8 -0.7 -1.5 -1.5 -1.5 -0.8 0 -1.5 -0.4 -1.5 -0.8 0 -1.2 6.3 -0.2 7.3 1.2 0.5 0.6 0.6 -0.1 0.2 -1.7 -0.4 -1.9 -0.2 -2.6 0.5 -2.2 0.5 0.3 1 1.9 1 3.6 0 2.6 -0.3 2.9 -3 2.9 -2 0 -3 -0.5 -3 -1.5z"/>
        </g>
        <g fill="#16a5ff">
            <path d="M46 37.5 c0 -1.3 -2 -1.5 -12 -1.5 -11.5 0 -12.2 -0.1 -14.5 -2.5 -2.4 -2.3 -3.3 -5.4 -1.7 -5.6 0.4 0 1.8 -0.2 3.1 -0.5 1.4 -0.2 2.8 0.1 3.1 0.7 0.4 0.6 5.7 1.3 12.5 1.6 13.1 0.7 15.5 1.7 15.5 6.5 0 2.4 -0.4 2.8 -3 2.8 -2 0 -3 -0.5 -3 -1.5z"/>
            <path d="M22 16 c0 -1.3 24 -1.3 26 0 1 0.7 -3 1 -12.2 1 -8.6 0 -13.8 -0.4 -13.8 -1z"/>
        </g>
        <g fill="#289fff">
            <path d="M34.4 36.3 c-11.3 -0.3 -12.4 -0.5 -14.8 -2.8 -2 -1.8 -2.6 -3.4 -2.6 -6.5 0 -4.5 1.4 -5.4 2.4 -1.5 0.8 3 2.6 2.4 2.6 -0.9 0 -3.3 3.8 -4.6 13.4 -4.6 7.9 0 13.3 1.7 11.3 3.6 -0.4 0.4 -0.7 0.2 -0.7 -0.4 0 -0.9 -3.3 -1.2 -11 -1.2 l-11 0 0 3.5 0 3.5 11.3 0 c12.5 0 15.7 1.1 15.7 5.6 0 1.9 -0.5 2.4 -2.2 2.2 -1.3 -0.1 -7.8 -0.4 -14.4 -0.5z m0.6 -3.3 c-6.3 -0.3 -10.4 -0.7 -9 -0.9 2.4 -0.3 2.4 -0.4 -0.5 -1 -1.6 -0.4 -3.9 -0.5 -5 -0.2 -1.7 0.4 -1.6 0.6 1 1.7 1.9 0.8 7 1.3 14 1.2 l11 -0.2 -11.5 -0.6z"/>
        </g>
        <g fill="#7c8ebe">
            <path d="M18 32.1 c-2.2 -4.2 -0.7 -15.1 2.1 -15.1 0.6 0 0.6 0.7 -0.1 1.9 -1.3 2.5 -1.3 13.1 0 13.1 0.6 0 1 0.5 1 1 0 1.7 -1.9 1.1 -3 -0.9z"/>
        </g>
        <g fill="#57c4c5">
            <path d="M23 23 c1 -1.8 2.1 -2 11.8 -2 7.1 0 11.2 0.4 12 1.2 1.5 1.5 1.6 2.8 0.2 2.8 -0.5 0 -1 -0.7 -1 -1.5 0 -1.2 -1.9 -1.5 -11 -1.5 -9.1 0 -11 0.3 -11 1.5 0 0.8 -0.5 1.5 -1 1.5 -0.7 0 -0.7 -0.6 0 -2z"/>
        </g>
        <g fill="#2fb6fd">
            <path d="M46 39 c0 -1.6 -0.1 -3.1 -0.2 -3.1 -0.2 -0.1 -5 -0.5 -10.8 -0.9 l-10.5 -0.7 11.8 -0.1 c14.4 -0.2 16.1 -2.1 2 -2.3 -12.9 -0.2 -15.7 -0.8 -16.1 -3.7 -0.2 -1.2 0.1 -2.2 0.7 -2.2 0.6 0 1.1 0.7 1.1 1.5 0 1.2 1.9 1.5 11.4 1.5 9.9 0 11.7 0.3 14 2.1 2.1 1.7 2.6 2.9 2.6 6.5 0 4.2 -0.1 4.4 -3 4.4 -2.7 0 -3 -0.3 -3 -3z"/>
            <path d="M19.5 33 c-0.7 -1.2 0.2 -1.2 3 0 1.9 0.8 1.9 0.9 -0.2 0.9 -1.2 0.1 -2.5 -0.3 -2.8 -0.9z"/>
            <path d="M18.1 20.8 c-0.1 -1.7 0.7 -3.3 2.1 -4.2 2.5 -1.8 3.9 -1.2 1.5 0.7 -0.9 0.6 -2.1 2.3 -2.6 3.7 l-1 2.5 0 -2.7z"/>
        </g>
        <g fill="#aa9f9b">
            <path d="M3.3 57.3 l-3.3 -3.6 0 -23.3 0 -23.2 3.6 -3.6 c3.4 -3.4 4 -3.6 10 -3.6 5.7 0 6.4 0.2 6.4 2 0 1.3 0.7 2 2 2 1.3 0 2 -0.7 2 -2 0 -1.1 0.5 -2 1 -2 0.6 0 1 0.8 1 1.9 0 1.6 0.8 1.9 5 1.9 4.2 0 5 -0.3 5 -1.9 0 -1.8 0.9 -1.9 11.3 -1.9 l11.4 0 1.4 2.8 c0.7 1.5 1.5 3 1.7 3.4 0.2 0.4 -11.7 0.9 -26.4 1 l-26.8 0.3 -1.6 3 c-0.8 1.7 -1.8 3.2 -2.2 3.3 -0.5 0.2 -0.8 10.1 -0.8 21.9 l0 21.5 28.5 -0.3 c15.7 -0.3 28.5 -0.3 28.5 -0.2 0 0.2 -0.9 1.2 -2 2.3 -1.9 1.9 -3.3 2 -27.2 1.9 l-25.3 0 -3.2 -3.6z m3.7 -51.8 c0 -0.8 -0.7 -1.5 -1.5 -1.5 -0.8 0 -1.5 0.7 -1.5 1.5 0 0.8 0.7 1.5 1.5 1.5 0.8 0 1.5 -0.7 1.5 -1.5z"/>
            <path d="M56.3 49.5 c0 -2.7 0.2 -3.8 0.4 -2.2 0.2 1.5 0.2 3.7 0 5 -0.2 1.2 -0.4 0 -0.4 -2.8z"/>
            <path d="M61.3 48.5 c0 -3.3 0.2 -4.5 0.4 -2.7 0.2 1.8 0.2 4.5 0 6 -0.2 1.5 -0.4 0 -0.4 -3.3z"/>
        </g>
        <g fill="#2dd7ff">
            <path d="M44 46.5 c0 -1.4 0.5 -2.5 1 -2.5 0.6 0 1 -0.7 1 -1.5 0 -1 1 -1.5 3 -1.5 2.4 0 3 0.4 3 2.1 0 3.7 -1.9 5.9 -5 5.9 -2.5 0 -3 -0.4 -3 -2.5z"/>
            <path d="M49.6 34.6 c-0.4 -1.7 -1.5 -2.6 -3.6 -3.1 -3.3 -0.7 -4.1 -2.5 -1.1 -2.5 2.6 0 7.1 3.8 7.1 6.1 0 2.7 -1.7 2.4 -2.4 -0.5z"/>
            <path d="M45.7 22.9 c-0.4 -1.7 -0.3 -1.9 0.6 -1 1.5 1.5 4.7 1.4 4.7 -0.1 0 -2.3 -1.9 -4.2 -5.2 -5.5 -1.9 -0.6 -2.5 -1.2 -1.5 -1.2 2.1 -0.1 5.9 1.7 6.9 3.3 0.4 0.6 0.8 2.3 0.8 3.9 0 2.3 -0.4 2.7 -2.9 2.7 -2.1 0 -3 -0.6 -3.4 -2.1z"/>
        </g>
        <g fill="#48c3fb">
            <path d="M45.4 44.8 c0.3 -1.3 0.6 -3.9 0.6 -5.8 0.1 -3.1 0.2 -3.3 1.4 -1.7 1.6 2.1 2.6 2.2 2.6 0.2 0 -0.8 0.5 -1.5 1.1 -1.5 0.6 0 0.9 2.1 0.7 5.3 -0.3 5.1 -0.4 5.2 -3.7 5.5 -3.1 0.3 -3.3 0.2 -2.7 -2z m4.6 0.2 c0 -0.5 -0.7 -1 -1.5 -1 -0.8 0 -1.5 0.5 -1.5 1 0 0.6 0.7 1 1.5 1 0.8 0 1.5 -0.4 1.5 -1z"/>
            <path d="M20.2 34.4 c-1.2 -0.8 -2.2 -2.2 -2.2 -3 0 -1.4 0.2 -1.4 1.5 -0.1 0.8 0.9 2.8 1.8 4.5 2.2 1.6 0.4 3 1.1 3 1.6 0 1.5 -4.4 1 -6.8 -0.7z"/>
            <path d="M23.2 29.8 c-1.4 -1.4 -1.5 -4.7 -0.2 -6.8 0.7 -1.1 1 -0.5 1 2.3 0 3 0.4 3.7 2 3.7 1.1 0 2 0.5 2 1 0 1.4 -3.3 1.3 -4.8 -0.2z"/>
            <path d="M20 16.9 c0 -1.1 4.3 -2.2 6.7 -1.7 1.1 0.2 0.2 0.8 -2.4 1.5 -2.4 0.6 -4.3 0.7 -4.3 0.2z"/>
        </g>
        <g fill="#749bfd">
            <path d="M36.7 31.3 c-15.7 -0.4 -16.4 -2.3 -0.8 -2.3 7.9 0 11.2 0.4 12.7 1.5 1 0.8 1.7 1.4 1.4 1.3 -0.3 -0.2 -6.3 -0.4 -13.3 -0.5z"/>
            <path d="M28.3 15.3 c3.7 -0.2 9.6 -0.2 13 0 3.4 0.2 0.4 0.3 -6.8 0.3 -7.2 0 -9.9 -0.1 -6.2 -0.3z"/>
        </g>
        <g fill="#61cbe9">
        </g>
        <g fill="#46e0ff">
            <path d="M20.2 48.4 c-1.4 -1 -2.2 -2.5 -2.2 -4.5 0 -2.6 0.3 -2.9 3 -2.9 2 0 3 0.5 3 1.5 0 1.2 1.9 1.5 11 1.5 l11 0 0 -4 c0 -3.3 -0.3 -4 -2 -4 -1.1 0 -2 -0.4 -2 -1 0 -0.5 0.9 -1 2 -1 2.7 0 4.3 3.6 3.7 8.1 -0.4 2.9 -0.2 3.9 0.9 3.9 2.3 0 2 -13.6 -0.3 -14.9 -1 -0.6 -1.3 -1.1 -0.7 -1.1 0.6 0 1.9 0.9 2.9 2 2.4 2.7 1.6 14.7 -1.1 16.7 -2.7 2 -26.2 1.8 -29.2 -0.3z"/>
            <path d="M20.2 34.4 c-2 -1.3 -2.2 -2.3 -2 -8.7 l0.2 -7.2 0.3 6.4 c0.4 6 1.8 9.1 4.2 9.1 0.6 0 1.1 0.5 1.1 1 0 1.4 -1.2 1.2 -3.8 -0.6z"/>
        </g>
        <g fill="#95c8ca">
            <path d="M41 35 c0 -0.5 0.9 -1 2 -1 1.1 0 2 0.5 2 1 0 0.6 -0.9 1 -2 1 -1.1 0 -2 -0.4 -2 -1z"/>
            <path d="M19.2 33.8 c-0.7 -0.7 -1.1 -2.3 -1.1 -3.7 l0.2 -2.6 0.4 2.5 c0.3 1.3 1.2 3 2.1 3.7 1 0.7 1.2 1.3 0.7 1.3 -0.6 0 -1.6 -0.5 -2.3 -1.2z"/>
            <path d="M48.2 24.3 c1.5 -0.2 2.9 -1.2 3.1 -2.1 0.3 -1.2 0.5 -1 0.6 0.6 0.1 1.9 -0.4 2.2 -3.1 2.1 -3 -0.2 -3 -0.2 -0.6 -0.6z"/>
        </g>
        <g fill="#3ffcff">
            <path d="M40.3 48.3 c1.5 -0.2 3.7 -0.2 5 0 1.2 0.2 0 0.4 -2.8 0.4 -2.7 0 -3.8 -0.2 -2.2 -0.4z"/>
            <path d="M48.8 46.4 c0.6 -0.3 1.2 -1.6 1.2 -2.9 0 -1.3 0.5 -2.7 1.1 -3 0.7 -0.5 0.9 0.5 0.7 2.6 -0.2 2.5 -0.8 3.4 -2.3 3.6 -1.1 0.2 -1.4 0 -0.7 -0.3z"/>
            <path d="M38 45.1 c0 -0.6 1.8 -1.1 3.9 -1.1 2.2 0 4.2 -0.6 4.5 -1.2 0.3 -0.7 0.5 -0.4 0.3 0.7 -0.2 1.6 -1.1 2.1 -4.5 2.3 -2.5 0.2 -4.2 -0.1 -4.2 -0.7z"/>
            <path d="M20.5 34.3 c-1.8 -1.4 -1.8 -1.5 -0.2 -0.9 1 0.3 7 0.6 13.3 0.6 7.4 0 11.3 0.4 10.9 1 -0.4 0.6 -5.2 1 -11.3 1 -8.3 -0.1 -11.2 -0.4 -12.7 -1.7z"/>
            <path d="M30.3 30.3 c3.7 -0.2 9.6 -0.2 13 0 3.4 0.2 0.4 0.3 -6.8 0.3 -7.2 0 -9.9 -0.1 -6.2 -0.3z"/>
        </g>
        <g fill="#4ff8fe">
            <path d="M20 48 c-1.1 -1.1 -2 -3.1 -2 -4.5 0 -2.1 0.5 -2.5 3 -2.5 2 0 3 0.5 3 1.5 0 0.9 0.9 1.5 2.5 1.5 1.4 0 2.5 0.5 2.5 1 0 1.8 -4.6 1.1 -6.5 -1 -2.1 -2.3 -3.5 -1.8 -2.8 0.9 0.5 2 2.9 3 7.3 3.2 2.3 0 2.3 0.1 0.5 0.9 -3.3 1.4 -5.4 1.1 -7.5 -1z"/>
            <path d="M43 49 c-2.5 -0.8 -2.5 -0.8 0.5 -0.9 4.1 -0.2 6.5 -2.3 7 -6.1 0.6 -4.9 1.5 -4.9 1.5 -0.2 0 2.9 -0.6 4.8 -2 6.2 -2.1 2.1 -3.1 2.3 -7 1z"/>
            <path d="M42.5 45 c-1.8 -0.8 -1.7 -0.9 0.7 -0.9 1.4 -0.1 2.9 -0.7 3.2 -1.3 0.3 -0.7 0.5 -0.4 0.3 0.6 -0.2 2.3 -1.5 2.8 -4.2 1.6z"/>
            <path d="M41.5 35 c2.8 -1.2 3.7 -1.2 3 0 -0.3 0.6 -1.6 1 -2.8 0.9 -2.1 0 -2.1 -0.1 -0.2 -0.9z"/>
            <path d="M50.8 22 c0.2 -1.6 0.6 -3 0.8 -3 0.2 0 0.4 1.4 0.4 3 0 1.7 -0.4 3 -0.8 3 -0.5 0 -0.7 -1.3 -0.4 -3z"/>
        </g>
        <g fill="#c3c6c6">
            <path d="M44 49.1 c0 -0.5 1.4 -1.2 3 -1.6 1.7 -0.4 3 -1.3 3 -2.1 0 -0.8 0.5 -1.4 1 -1.4 1.6 0 1.2 1.8 -1 4 -2 2 -6 2.8 -6 1.1z"/>
            <path d="M20.4 34.4 c-1.9 -1.5 -1.9 -1.6 0.1 -0.8 1.1 0.4 7 1.1 13 1.4 l11 0.7 -11.1 0.1 c-8.7 0.2 -11.4 -0.1 -13 -1.4z"/>
        </g>
        <g fill="#64feff">
            <path d="M20.3 48.5 c-2.3 -1.6 -3.3 -7.5 -1.4 -7.5 0.5 0 0.9 1.2 0.9 2.6 0 1.5 0.6 3 1.3 3.5 1.5 1 23.2 1.2 26.5 0.3 1.3 -0.3 2.6 -1.9 3.2 -3.7 0.9 -2.9 1 -3 1.1 -0.7 0 1.4 -0.6 3.4 -1.5 4.5 -1.3 1.8 -2.9 2 -14.7 2.3 -10.9 0.2 -13.6 0 -15.4 -1.3z"/>
            <path d="M24.5 45 c-1.3 -0.5 2.2 -0.9 9.7 -0.9 l11.7 -0.1 0.4 -4.2 0.4 -4.3 0.1 4.6 0.2 4.6 -4.6 0.7 c-6.4 0.8 -15.5 0.6 -17.9 -0.4z"/>
        </g>
        <g fill="#8afcfd">
            <path d="M19.2 47.8 c-1.5 -1.5 -1.6 -6.8 -0.1 -6.8 0.6 0 0.8 0.8 0.4 2 -0.3 1 -0.1 2.8 0.5 4 1.2 2.3 1 2.6 -0.8 0.8z"/>
            <path d="M51 39.7 l0.5 -7.2 0.3 6.4 c0.2 3.5 -0.1 6.8 -0.5 7.2 -0.4 0.4 -0.6 -2.4 -0.3 -6.4z"/>
            <path d="M29.8 44.3 c2.8 -0.2 7.6 -0.2 10.5 0 2.8 0.2 0.5 0.3 -5.3 0.3 -5.8 0 -8.1 -0.1 -5.2 -0.3z"/>
        </g>
        <g fill="#e4dad4">
            <path d="M3.7 57.5 l-1.8 -2.5 4.1 0 c3.6 0 4 0.2 4 2.5 0 3.4 -3.8 3.3 -6.3 0z"/>
            <path d="M52 3.5 c0 -2.1 0.5 -2.5 2.9 -2.5 2.9 0 6.1 2.2 6.1 4.1 0 0.5 -2 0.9 -4.5 0.9 -4.1 0 -4.5 -0.2 -4.5 -2.5z"/>
        </g>
        <g fill="#c2e6f7">
        </g>
        <g fill="#f0e7e1">
            <path d="M7 59 c0 -0.5 -0.6 -1 -1.3 -1 -0.8 0 -2.1 -0.8 -3 -1.8 -1.5 -1.6 -1.7 -4.9 -1.7 -25.8 l0 -24 2.8 -2.7 c2.5 -2.4 3.6 -2.7 9.5 -2.7 5.3 0 6.7 0.3 6.7 1.5 0 0.8 0.9 1.5 2 1.5 1.1 0 2 -0.7 2 -1.5 0 -0.8 0.5 -1.5 1 -1.5 0.6 0 1 0.7 1 1.5 0 0.8 0.9 1.5 2 1.5 1.1 0 2 -0.7 2 -1.5 0 -0.8 0.5 -1.5 1 -1.5 0.6 0 1 0.7 1 1.5 0 0.8 0.9 1.5 2 1.5 1.1 0 2 -0.7 2 -1.5 0 -1.2 1.9 -1.5 10.8 -1.5 7 0 10.2 0.4 9.2 1 -1.3 0.8 -1.2 1 0.1 1.5 0.9 0.3 2.2 0.5 2.9 0.3 0.7 -0.2 1.5 0.3 1.7 1 0.4 0.9 -5 1.2 -24.9 1.2 -32.6 0 -29.8 -2.2 -29.8 23.1 l0 18.5 4.3 4.2 4.3 4.2 23.3 0 c23.3 0 23.4 0 21.6 2 -1.7 1.9 -3.1 2 -27.2 2 -16.2 0 -25.3 -0.4 -25.3 -1z"/>
        </g>
        <g fill="#f6f3f0">
            <path d="M56.5 59 c0.4 -0.6 -2 -1 -6.4 -1 -4.1 0 -7.1 -0.4 -7.1 -1 0 -1.2 13 -1.3 14.9 -0.1 1.4 0.9 0.7 3.1 -1 3.1 -0.6 0 -0.7 -0.4 -0.4 -1z"/>
            <path d="M4.3 55.5 c-2.6 -2.8 -3.1 -7.5 -0.8 -7.5 0.8 0 3.1 1.8 5.1 4 3.4 3.7 4 4 9 4 3 0 5.4 0.5 5.4 1 0 0.6 -3.4 1 -8.2 0.9 -7.4 0 -8.5 -0.3 -10.5 -2.4z"/>
            <path d="M2 7.4 c0 -1.4 0.4 -2.3 1 -1.9 0.6 0.3 1 1.5 1 2.6 0 1 -0.4 1.9 -1 1.9 -0.5 0 -1 -1.2 -1 -2.6z"/>
            <path d="M22 5 c0 -0.5 1.4 -1 3 -1 1.7 0 3 0.5 3 1 0 0.6 -1.3 1 -3 1 -1.6 0 -3 -0.4 -3 -1z"/>
            <path d="M40 5 c0 -0.5 0.9 -1 2 -1 1.1 0 2 0.5 2 1 0 0.6 -0.9 1 -2 1 -1.1 0 -2 -0.4 -2 -1z"/>
            <path d="M9.3 1.3 c2 -0.2 5.4 -0.2 7.5 0 2 0.2 0.3 0.4 -3.8 0.4 -4.1 0 -5.8 -0.2 -3.7 -0.4z"/>
            <path d="M41.3 1.3 c3.2 -0.2 8.1 -0.2 11 0 2.9 0.2 0.3 0.3 -5.8 0.3 -6 0 -8.4 -0.1 -5.2 -0.3z"/>
        </g>
        <g fill="#deffff">
            <path d="M28.3 49.3 c3.7 -0.2 9.6 -0.2 13 0 3.4 0.2 0.4 0.3 -6.8 0.3 -7.2 0 -9.9 -0.1 -6.2 -0.3z"/>
        </g>
        <g fill="#ffffff">
            <path d="M20 57 c0 -0.6 5 -1 13 -1 8 0 13 0.4 13 1 0 0.6 -5 1 -13 1 -8 0 -13 -0.4 -13 -1z"/>
        </g>
    </symbol>
</svg>