<svg xmlns="http://www.w3.org/2000/svg">
    <symbol id="icon-starsector" viewBox="0 0 32 32">
        <g fill="#050505">
            <path d="M21 56c0-.5-2.2-1-5-1h-5V45h4c2.2 0 4 .5 4 1 0 .6 6 1 16 1h16v3.5c0 3.4-.1 3.5-4 3.5-2.9 0-4 .4-4 1.5 0 1.2-1.9 1.5-11 1.5-6.7 0-11-.4-11-1zM52.3 27.5c-.7-.8-1.3-3-1.3-5 0-3.4.1-3.5 3.6-3.5 4.5 0 6.4 1.9 6.4 6.4 0 3.5-.1 3.6-3.7 3.6-2.1-.1-4.4-.7-5-1.5zM7 14V9h15v3.4c0 6.2-.5 6.6-8.1 6.6H7v-5zM45.8 16.4c-2.5-1.3-2.8-2-2.8-6.4V5h12v13h-3.2c-1.8-.1-4.5-.8-6-1.6zM27 11.1c0-2.2.5-4.2 1.3-4.4.6-.3-.3-.6-2-.6C23.3 6 23 5.7 23 3c0-2.9.2-3 4.5-3 4.1 0 4.5.2 4.5 2.5 0 2.1.5 2.5 3 2.5 2.6 0 3 .4 3 2.8 0 6.2-.8 7.2-6.1 7.2H27v-3.9z"/>
        </g>
        <g fill="#0e0e10">
            <path d="M11.8 56c-.7-1.7-2.1-3-3-3-1 0-2.2-.9-2.8-1.9C4.7 48.6 4.7 43 6 43c.6 0 1-.7 1-1.5C7 39 11.6 35 14.5 35c1.4 0 2.5-.4 2.5-1 0-.5-2.2-1-5-1H7V23c0-8.2.3-10 1.5-10 .8 0 1.5.7 1.5 1.5 0 2.3 7.6 2.1 8.5-.2.3-1 .1-1.9-.4-2.1-.6-.2-1.1-1.5-1.1-2.8 0-2.2.4-2.4 5-2.4 2.8 0 5-.4 5-1s2.7-1 6-1h6v8h-4.9c-3.4 0-5.1.4-5.5 1.5-.3.9-1.9 1.5-4.1 1.5-2.7 0-3.5.4-3.5 1.8 0 1-.4 2.2-.9 2.7-1 1.1-1.4 3.5-1.2 8.2.1 3.2.2 3.2 6.1 3.9l6 .7v3.8c0 3.3-.4 4-2.5 4.5-1.4.3-3.9.4-5.6 0-3.8-.7-7.6 2.4-8.5 7.2-.6 3.1-.5 3.2 2.5 3.2 3.6 0 4.2-1.6.9-2.3-1.3-.2-.2-.5 2.5-.6 2.6 0 4.7-.5 4.7-1.1 0-.5 2.3-1 5-1 4.3 0 5 .3 5 2 0 1.1.7 2 1.5 2s1.5.7 1.5 1.5.5 1.5 1 1.5c.6 0 1-.7 1-1.5s.7-1.6 1.5-1.6c5.7-.5 8.3-.4 10.8.4 2.2.7 2.7 1.5 2.7 4.3V59H13.2l-1.4-3zM34 52c0-1.1-.4-2-1-2-.5 0-1 .5-1 1 0 .6-.9 1-2 1s-2-.4-2-1c0-.5-1.3-1-3-1-3.3 0-3.6.4-1.7 2.5.7.8 3.1 1.4 6 1.5 4 0 4.7-.3 4.7-2zm.3-42c.3-1.3 0-2-1-2-.8 0-1.1.5-.8 1 .3.6-.1 1-.9 1-.9 0-1.6.5-1.6 1 0 1.9 3.8 1 4.3-1z"/>
            <path d="M50 42.5c0-3.5 0-3.5 4.5-3.5s4.5 0 4.5 3.5 0 3.5-4.5 3.5-4.5 0-4.5-3.5zM22 27.1c0-5 .9-6.1 5.1-6.1H31v9h-4.5c-4.3 0-4.5-.1-4.5-2.9zM50.6 24.4c-.9-6.8-.8-10.6.4-9.9.6.3 1 .1 1-.4 0-.7 2.4-1.1 6-1.1h6v4c0 2.7-.4 4-1.3 4-1.4 0-3.7 4-3.7 6.5 0 1.1-1.2 1.5-3.9 1.5-3.8 0-3.8 0-4.5-4.6zm7.4 1c0-.3-.7-1.2-1.5-2.1-2-1.9-3.2-1-1.4 1.1 1.4 1.5 2.9 2.1 2.9 1zM35 23v-4h13v8H35v-4z"/>
        </g>
        <g fill="#171717">
            <path d="M31 57.6c0-.7.9-1.6 1.9-1.9 1.4-.3 1.8-1.1 1.4-2.6-.4-1.5-.1-2.1 1.1-2.1.9 0 1.6-.8 1.6-2 0-1.7.7-2 4.4-2 2.6 0 5.1-.6 6-1.5.8-.8 2.8-1.5 4.5-1.5 2.9 0 3.1.2 3.1 4 0 4.2.3 4-7.5 5.6-1.6.3-3.8.6-4.7.7-2 .2-1.3 1.7.8 1.7.8 0 1.4.7 1.4 1.5 0 1.2-1.4 1.5-7 1.5-5.3 0-7-.3-7-1.4zm8.8-4.9c.2-1.5-.1-2.7-.7-2.7s-1.1.6-1.1 1.4c0 .8-.3 2.2-.7 3.2-.4 1.2-.2 1.5.8 1.2.8-.2 1.5-1.7 1.7-3.1z"/>
            <path d="M61 51.5c0-2.5-.4-4.5-1-4.5-.5 0-1-1.8-1-4 0-3.9-.1-4-3.5-4-2.4 0-3.5-.5-3.5-1.5 0-.8-.4-1.5-1-1.5-.5 0-1-1.1-1-2.5 0-1.6-.6-2.5-1.5-2.5-.8 0-1.5-.9-1.5-2 0-1.7-.7-2-4.5-2-4.9 0-6.3-2.2-2.2-3.5l2.2-.8-2.3-.4c-3.7-.7-1.9-2.8 2.6-3.1 3.7-.3 4.2-.1 4.2 1.7 0 1.7.6 2.1 2.9 2.1 2 0 3.1-.6 3.4-1.7.3-1 .5-.3.6 1.5.1 2.5.5 3.2 2.1 3.2 1.1 0 2-.4 2-1 0-.5-.4-1-.9-1-.6 0-.9-.9-.8-2 .1-1.1.5-2 .9-2s.8-.9.8-2c0-1.5-.7-2-2.5-2-1.6 0-2.5.6-2.5 1.5 0 2.2-3.1 1.8-3.7-.5-.5-1.9-1.4-2-13.7-2.1-7.2-.1-14.1 0-15.3.1-1.7.1-2.1-.3-1.7-1.4.5-1.3-.2-1.6-4-1.6-3.4 0-4.6.4-4.6 1.5 0 .8-.7 1.5-1.5 1.5C7.4 15 7 13.9 7 11s.4-4 1.5-4c.8 0 1.5-.4 1.5-1s3.8-1 9.5-1C29 5 29 5 29 2.5c0-2.3.3-2.5 5-2.5s5 .2 5 2.5V5h25v25.5c0 22-.2 25.5-1.5 25.5-1.1 0-1.5-1.2-1.5-4.5zm-9-40c0-3.2-.2-3.5-3-3.5-4 0-4.1 3.3-.2 5.4 1.5.8 2.8 1.5 3 1.6.1 0 .2-1.6.2-3.5zm-26.9 0c0-.5-1.2-1.1-2.6-1.3-1.8-.2-2.5.1-2.5 1.3s.7 1.5 2.5 1.3c1.4-.2 2.6-.7 2.6-1.3zm9.5-.9C36.7 8.5 36.4 8 33 8c-2.3 0-3 .4-3 2 0 2.3 2.5 2.7 4.6.6zM12 46.8c0-1.8-.3-4.4-.7-5.7-.6-2.2-.4-2.3 2-1.7 2.5.6 2.6.5 2-2.9-.6-3.4-.5-3.5 3-3.5 1.9 0 4.2.3 5.1.6 2.6 1 1.8 2.7-.9 2.2-1.4-.3-2.5-.1-2.5.3 0 .5 1.1 1.1 2.5 1.5 1.4.3 2.5 1.2 2.5 2S24 41 22.5 41c-2.3 0-2.5.4-2.5 4.5 0 3.8-.3 4.5-1.9 4.5-1.1 0-2.2-.6-2.5-1.2-.5-1-.7-1-1.2 0-1.1 2.3-2.4 1.2-2.4-2z"/>
        </g>
        <g fill="#0d1426">
            <path d="M13 31.5c0-.8.8-1.5 1.8-1.5s1.3-.3.6-.8c-.6-.4-1.4-1.6-1.8-2.7-.5-1.8-.1-2.1 2.9-2.3l3.5-.3v4.6c0 4.5 0 4.5-3.5 4.5-2.4 0-3.5-.5-3.5-1.5zM29 26.5c0-3.3.2-3.5 3.3-3.5 1.7 0 4.9.3 7 .6 3.3.6 3.7 1 3.7 3.5V30H29v-3.5zM48.5 19l-.7-3H36c-9.2 0-12 .3-13 1.5-.7.8-2.9 1.5-4.9 1.5-2.6 0-3.2-.3-2.1-1 .8-.5 2-2.4 2.7-4.2.6-1.8 1.2-2.8 1.2-2.2.1.8 3.9.9 12.6.6 10.6-.4 13.2-.2 16.5 1.3 2.5 1.1 4 2.5 4 3.6 0 .9.3 2.4.6 3.3.5 1.2 0 1.6-1.9 1.6-2 0-2.7-.6-3.2-3z"/>
        </g>
        <g fill="#1f1e1e">
            <path d="M35 57c-3.6-.6-2.6-.7 5-.8 6.5-.1 9 .1 8 .8-1.7 1.1-6.1 1.1-13 0zM8.8 54.6c-1-.7-1.8-2.3-1.8-3.5C7 50 6.6 49 6 49s-1-7.3-1-20S5.4 9 6 9s1-.9 1-2c0-1.7.7-2 4.5-2 3.3 0 4.5.4 4.5 1.5 0 .8-.7 1.5-1.5 1.5S13 8.5 13 9c0 .6-.7 1-1.5 1-1.1 0-1.5 1.1-1.5 4 0 3.9.1 4 3.3 4 1.8 0 3.8-.5 4.5-1.2.9-.9 1.2-.4 1.2 2.5 0 3.4-.2 3.7-2.9 3.7-2.5 0-3.1.5-3.6 3-.4 1.7-1.1 2.8-1.6 2.4-.5-.3-.9 0-.9.5 0 .6 1.1 1.1 2.5 1.1 1.6 0 2.5.6 2.5 1.5 0 1 1 1.5 3 1.5 3.1 0 4.1 1.6 1.5 2.6-.8.4-1.5 1-1.5 1.5s.7.9 1.5.9c1.7 0 1.9 1.8.6 3.9-.6.9-1.8 1.1-3.5.7-1.4-.3-2.6-.2-2.6.3s-.3 1.6-.6 2.5c-.4 1.2 0 1.6 1.5 1.6 1.2 0 2.1-.4 2.1-1 0-1.4 4.2-1.2 6.3.4 2.1 1.6 2.2 3.6.3 3.6-.8 0-1.7.6-2 1.3-.5 1-.7 1-1.2 0-.3-.7-1.4-1.3-2.5-1.3-1 0-1.9-.4-1.9-1 0-.5-.4-1-1-1-.5 0-1 1.1-1 2.4 0 1.4.5 2.8 1 3.1.6.3 1 1 1 1.6 0 1.4-5.2 1-7.2-.5zm3.2-8.5c0-3 .6-4.4 2.2-5.5 1.2-.9 1.9-1.8 1.6-2.2-1-.9-5.8 4.2-5.8 6.1 0 .8-.5 1.5-1 1.5-.7 0-.7.6 0 2 1.7 3.2 3 2.3 3-1.9zm3-24.4c.8-.3 0-.6-1.7-.6-2.7-.1-3.3.3-3.3 2.1 0 1.9.2 2 1.8.6.9-.9 2.4-1.8 3.2-2.1zM41.7 54.4c-.4-.4-.7-1.6-.7-2.6s-.7-1.8-1.5-1.8-1.5.9-1.5 2c0 1.3-.7 2-2 2s-2-.7-2-1.9c0-1.1-.8-2.2-1.7-2.4-1.7-.4-1.7-.5 0-.6.9 0 1.7-.5 1.7-1.1 0-.5 1.6-1 3.5-1s3.5.5 3.5 1c0 .6 1.4 1 3 1 2.1 0 3-.5 3-1.6 0-2.8 2.7-4.4 7.4-4.4H59v4.5c0 4.9-.1 5-9 5.9-2.5.2-5.2.7-6.1 1-.8.4-1.8.3-2.2 0zm5.3-3.7c.9-.3.3-.6-1.2-.6-2-.1-2.8.4-2.8 1.5 0 1.2.4 1.4 1.3.7.6-.6 1.9-1.3 2.7-1.6zM25 40c0-.6.7-1.3 1.5-1.6.8-.4 1.5-1 1.5-1.5s-.7-.9-1.5-.9-1.5-.7-1.5-1.5c0-1.1 1.1-1.5 4-1.5h4v8h-4c-2.2 0-4-.5-4-1zM37 37v-4h11v3.4c0 3.7-1.5 4.6-7.7 4.6-3.2 0-3.3-.2-3.3-4zM49 27.1c0-3.7.2-4.1 2.5-4.1 2 0 2.5.5 2.5 2.4 0 1.3.6 2.6 1.3 2.9 1.8.6.5 1.6-3.1 2.3-3.2.6-3.2.6-3.2-3.5zM25 28c0-.5.7-1 1.5-1s1.5-.7 1.5-1.5c0-1.8-1.6-2-2.3-.2-.3.6-.6 0-.6-1.5L25 21l10.3.2c5.6.1 8.5.3 6.5.5-4.8.5-5 2.3-.3 2.3 3.1 0 3.5.3 3.5 2.5V29H35c-6 0-10-.4-10-1zM57.3 21.5c-1-.9-1.3-1.4-.5-1.5.6 0 1.2-.9 1.2-2s.5-2 1-2c.6 0 1 .9 1 2s.5 2 1 2c1.5 0 1.2 1.7-.4 2.3-.8.3-2.2-.1-3.3-.8zM55 12.5c0-.9-.6-1.2-1.5-.9-.8.4-1.5.1-1.5-.5 0-.7 2-1.1 4.9-1.1 4.4 0 5 .2 4.8 2-.1 1.6-.8 2-3.4 2-2.2 0-3.3-.5-3.3-1.5zM52.8 7.3c2.3-.2 5.9-.2 8 0 2 .2.1.4-4.3.4-4.4 0-6.1-.2-3.7-.4zM17 3.5V0h15.6l.1 3.5.1 3.5H17V3.5z"/>
        </g>
        <g fill="#272422">
            <path d="M5 62.5C3.9 61.2 6.9 61 31.4 61c17.7 0 27.6-.4 27.6-1 0-.5-1.9-1-4.1-1-3.6 0-4.1-.3-3.6-1.9.4-1.5-.2-2.2-2.4-3-3-1-3.8-2.6-1.6-3.4.9-.4.9-.6 0-.6-2.2-.2-1.4-3.1.7-3.1 1.6 0 2-.7 2-3.5 0-3.5 0-3.5 4.5-3.5 2.5 0 4.5-.4 4.5-1 0-.5-.7-1-1.5-1-1.8 0-2-1.6-.2-2.3.9-.4.9-.8-.2-1.5-1.2-.9-1.2-1.3-.2-2.6.8-.9 1.6-2.9 2-4.6.4-2.1 1-2.7 1.9-2.1.9.5 1.4 4.5 1.7 13.2.3 6.8.7 13.9 1.1 15.8.5 2.8 0 3.9-2.7 6.7L57.6 64H31.9C10.3 64 6 63.8 5 62.5zm49.4-13.1c.9-.3 1.6-1.2 1.6-2 0-2.1-3.4-1.7-5.5.6-1.8 1.9-1.7 2 .3 2 1.1 0 2.7-.3 3.6-.6z"/>
            <path d="M34.5 52c-.3-1.1-1.3-2-2.1-2s-1.4-.7-1.4-1.5c0-1.1 1.1-1.5 3.6-1.5 3.3 0 3.6.2 3 2.3-.3 1.2-.6 2.8-.6 3.5 0 1.9-1.8 1.4-2.5-.8zM9 51c0-1.9.1-1.9 2-.3 1.1 1 2 1.9 2 2 0 .2-.9.3-2 .3-1.3 0-2-.7-2-2zM12.2 45.8c.2-3.3.8-4.5 2.6-5.3C16 40 17 39.2 17 38.8c0-.5.5-.8 1-.8.6 0 1 1.6 1 3.5s.5 3.5 1 3.5c.6 0 1 1.2 1 2.6 0 2.2-.3 2.4-1.4 1.5-1.1-.9-1.5-.9-1.9.1-.4 1-.8 1-1.7-.2-.9-1.1-1.3-1.2-1.7-.2-1.1 2.7-2.4.9-2.1-3zm4.8.3c0-1.7-1.2-4.1-2.1-4.1-.5 0-.9 1.1-.9 2.5 0 1.6.6 2.5 1.5 2.5.8 0 1.5-.4 1.5-.9zM50.3 32.3c-.7-.2-1.3-2-1.3-3.9 0-3.1.3-3.4 2.8-3.3 2.3.2 2.4.2.5.6-3.3.6-2.8 2.3.7 2.3 1.7 0 3 .5 3 1 0 .6-.7 1-1.5 1s-1.5.7-1.5 1.5c0 1.5-.6 1.7-2.7.8zM22 25c0-3.9.1-4 3.5-4 2.4 0 3.5.5 3.5 1.5 0 .8-.6 1.5-1.4 1.5-.8 0-1.7.7-2 1.6-.5 1.3-.2 1.5 1.4 1.1 1.3-.3 2 0 2 .9S27.8 29 25.5 29c-3.4 0-3.5-.1-3.5-4zM31 22.8V19h5c3.8 0 5 .4 5 1.5 0 .8-.5 1.5-1.1 1.5-.6 0-1.8.7-2.6 1.6-1.2 1.2-1.3 1.8-.4 2.3.6.4-.4.7-2.4.7-3.4-.1-3.5-.2-3.5-3.8zM57.9 21.9c-1-.6-.7-.9 1.4-.9 2.9 0 3.5.5 1.4 1.3-.8.3-2 .1-2.8-.4zM19.7 6.3c-.4-.3-.7-1.9-.7-3.5 0-2.6.3-2.8 3.8-2.8 3.7 0 3.8.1 3.9 3.5.1 3.3-.1 3.5-3.1 3.5-1.8 0-3.6-.3-3.9-.7zm2.7-3.8c-.4-.8-1-1.5-1.5-1.5s-.9.7-.9 1.5.7 1.5 1.5 1.5c.9 0 1.2-.6.9-1.5z"/>
        </g>
        <g fill="#1c2232">
            <path d="M50 40.8C50 31.2 48.2 30 34.5 30c-7.5 0-9.5-.3-9.5-1.4 0-.8 1.1-1.7 2.5-2 3.3-.8 3.2-2.4-.2-2.9-2-.3-1.6-.4 1.4-.6 6.5-.2 10.3 2.2 5.1 3.2-1.3.3-.1.3 2.7.2 2.7-.1 5.1-.8 5.3-1.4.2-.6 1-1.1 1.8-1.1s1.4-.4 1.4-1c0-.5 1.7-1 3.9-1 3 0 4 .4 4.4 2 .4 1.5 0 2-1.4 2-2.5 0-2.5 1.7 0 2.5 1.3.4 1.7 1.2 1.4 2.5-.3 1.1 0 2 .6 2s1.1.7 1.1 1.5.5 1.5 1 1.5c.6 0 1 2 1 4.5 0 4.5 0 4.5-3.5 4.5-3.4 0-3.5-.1-3.5-4.2zm6 2.2c0-.5-.7-1-1.5-1s-1.5.5-1.5 1c0 .6.7 1 1.5 1s1.5-.4 1.5-1z"/>
            <path d="M21 40.9c0-2.5.4-3 2.3-2.9 4.2.4 6.7 0 6.7-1 0-.5-2.1-1.1-4.7-1.2-4.7-.1-4.7-.1-.9-.5 2.2-.3 5 .1 6.2.7 1.2.7 3.8 1.1 5.8.8 2-.2 3.7 0 3.9.5.1.4 1.4.4 2.7-.1 3.7-1.3 5-.4 5 3.4V44H21v-3.1zM13.7 26.3c-1.4-1.3-.7-4.3 1.1-4.4 1.4 0 1.4-.2-.3-.9-1.1-.5-1.4-.9-.7-.9.7-.1 2.4-1.3 3.7-2.8l2.4-2.8.1 6.3c0 6.2 0 6.2-2.8 6.2-1.6 0-3.2-.3-3.5-.7z"/>
        </g>
        <g fill="#061c54">
            <path d="M15.2 41.5c-1.1-1.2-1-1.5.3-1.5.8 0 1.5-.4 1.5-1 0-.5.9-1 2-1 1.5 0 2 .7 2 2.5 0 1.9-.5 2.5-2.2 2.5-1.3-.1-2.9-.7-3.6-1.5zM15.3 35.3c.9-.2 2.5-.2 3.5 0 .9.3.1.5-1.8.5-1.9 0-2.7-.2-1.7-.5zM48 19.1c0-.5-.9-1.1-2-1.4-2.9-.7-2.7-4.7.3-4.7s4.4 1.1 5.6 4.3c1 2.5.9 2.7-1.4 2.7-1.4 0-2.5-.4-2.5-.9zM19.5 15c1-1.1 2.6-2 3.7-2s1.8.7 1.8 2c0 1.6-.7 2-3.7 2-3.5 0-3.6 0-1.8-2z"/>
        </g>
        <g fill="#2f2c2b">
            <path d="M2.7 60.2C-.8 56.5-.7 55 3 55c2.8 0 3 .2 3 4 0 2.2-.1 4-.3 4-.2 0-1.5-1.3-3-2.8zM55 60.5c0-1.8.5-2.5 2-2.5 1.3 0 2-.7 2-2 0-1.5.7-2 2.5-2 3.3 0 3.2 2.2-.2 6-3.3 3.8-6.3 4-6.3.5zM45.5 57c-1.5-.7-1-.9 2.5-1l4.5-.2-3.7-1.5c-4.1-1.7-4.8-2.9-2-3.6 1.1-.3.7-.5-1-.6-2-.1-2.8.4-3.1 2.2-.3 1.6-.5 1.3-.6-1-.1-2.3.3-3.3 1.4-3.3.8 0 1.5-.4 1.5-1 0-.5 1.6-1 3.7-1 3.5 0 3.6.1 1.9 1.9-2 2.2-1.4 4.1 1.2 4 1.4 0 1.3-.2-.3-.8-1.6-.7-1.3-.9 1.8-1.3 3.7-.4 3.7-.4 3.7 3.3 0 2.4-.5 3.9-1.6 4.3-2.2.8-7.5.6-9.9-.4zM56 54c0-1.1-.4-2-1-2-.5 0-1 .9-1 2s.5 2 1 2c.6 0 1-.9 1-2zM10 54.5c0-2-.5-2.5-2.5-2.5-2.2 0-2.5-.4-2.5-4 0-5.1 2.1-5.3 3.9-.5.7 1.9 1.6 3.5 2 3.5.4 0 2.3 1.4 4.1 3l3.4 3h-4.2c-3.8 0-4.2-.2-4.2-2.5zM13.2 46.8c-1.5-1.5-1.5-4.1 0-5.6 1.9-1.9 3.8-1.4 3.7 1.1-.1 1.6-.2 1.8-.6.5-.7-2.9-2.3-2.1-2.3 1.1 0 2 .6 3.1 1.8 3.4 1.3.4 1.3.5.2.6-.9 0-2.1-.4-2.8-1.1zM54.3 45.8C51 45 51 44.9 51 39c0-3.3.4-6 1-6s1 2.5 1 5.5c0 4.2.3 5.5 1.5 5.5.8 0 1.5-.4 1.5-1 0-.5-.4-1-1-1-.5 0-.9-2.1-.9-4.7.1-2.7.3-4 .6-3 .5 1.8 3.3 2.4 3.3.7 0-.5-.4-1-1-1-.5 0-1-.4-1-1 0-.5.7-1 1.5-1s1.5.7 1.5 1.5.7 1.5 1.5 1.5c1.2 0 1.5 1.3 1.5 6s-.3 6-1.5 6c-.8 0-1.5-.6-1.5-1.2 0-.9-.3-1-.8-.2-.4.7-1.8.8-3.9.2zM24.5 42c-.4-.6 1.2-1 3.9-1 2.5 0 4.6.5 4.6 1 0 .6-1.8 1-3.9 1-2.2 0-4.3-.4-4.6-1zM37 42.1c0-.6 1.9-1.1 4.2-1.1 2.3 0 3.8-.3 3.5-.6-.4-.4-4.2-.6-8.6-.5-4.7.1-8.2-.2-8.6-.9-.3-.5.1-1 .9-1 3.1 0 1.5-2-1.6-2.1-2.4-.1-2.7-.3-1-.6 1.2-.2 2.2-.9 2.2-1.4 0-.5 2.3-.9 5-.9 2.8 0 5 .3 5 .8 0 .4 1.8.6 4.1.4l4-.4-.3 4.3c-.3 4.4-.3 4.4-4.5 4.7-2.6.2-4.3-.1-4.3-.7zm6.5-5.1c1.8-.8 1.7-.9-.7-.9-1.6-.1-2.8.4-2.8.9 0 1.2.8 1.2 3.5 0zM10 33.9c0-1.7 2.7-3.9 4.9-3.9 1.2 0 2.1-.6 2.1-1.5 0-.8.7-1.5 1.5-1.5 1.1 0 1.5 1.1 1.5 4v4h-5c-2.9 0-5-.5-5-1.1zM7.3 24c0-4.1.2-5.8.4-3.7.2 2 .2 5.4 0 7.5-.2 2-.4.3-.4-3.8z"/>
            <path d="M10.5 27.7c-.8-1.9 1.8-5.7 4-5.7 1.7 0 2.7 2.8 2 5.1-.8 2.3-2.5 2.5-2.5.4s-1.8-1.9-2.3.3c-.4 1.6-.4 1.6-1.2-.1zM27 28c0-.5 1.8-1 4-1s4 .5 4 1c0 .6-1.8 1-4 1s-4-.4-4-1zM22 23v-4h5.1c5.4 0 7.3 1.2 7.6 4.8.2 1.7-.2 2.2-2.2 2.2-1.4 0-2.5-.4-2.5-1 0-.5-1.1-1-2.5-1-1.6 0-2.5.6-2.5 1.5 0 .8-.7 1.5-1.5 1.5-1.1 0-1.5-1.1-1.5-4zM48.8 25.3c-2.2-.5-2.4-2.9-.3-3.7.8-.3 1.5-1.5 1.5-2.6s.3-2 .6-2c1.4 0 3.3 3.6 3.4 6.3 0 2.7-1 3.1-5.2 2zM17 20.5c0-1.9.5-3.5 1-3.5.6 0 1 1.6 1 3.5s-.4 3.5-1 3.5c-.5 0-1-1.6-1-3.5zM57.3 21.5c-1.7-1.3-1.6-1.4 1.5-1.5 3.3 0 4.3 1.3 1.8 2.3-.8.3-2.2-.1-3.3-.8zM11.3 20.3c.9-.2 2.5-.2 3.5 0 .9.3.1.5-1.8.5-1.9 0-2.7-.2-1.7-.5z"/>
        </g>
        <g fill="#3a3837">
            <path d="M57.1 59.9c-.1-3.8 1-4.9 4.9-4.9 1.7 0 1.7.2.4 3-.9 1.7-2.2 3-2.9 3-.7 0-1.6.6-1.8 1.3-.3.6-.6-.4-.6-2.4zM3 59.5c0-.8-.7-1.5-1.5-1.5C.6 58 0 57 0 55.4c0-2.1.4-2.5 2.3-2.2 1.8.2 2.3 1 2.5 4.1.2 2.1-.1 3.7-.7 3.7S3 60.3 3 59.5zM11 54.8c.1-3.8.2-4.1 1.4-2.5.7.9 1.8 1.7 2.5 1.7.6 0 1.1.5 1.1 1 0 .6.7 1 1.5 1s1.5.7 1.5 1.5c0 1.1-1.1 1.5-4 1.5h-4v-4.2zM35.3 56.3c2-.2 5.4-.2 7.5 0 2 .2.3.4-3.8.4s-5.8-.2-3.7-.4zM35 52c0-1.1-.7-2-1.5-2s-1.5-.7-1.5-1.5c0-1.2 1.4-1.5 7-1.5s7 .3 7 1.5c0 .8-.7 1.5-1.5 1.5s-1.5.9-1.5 2-.4 2-1 2c-.5 0-1-.9-1-2 0-1.3-.7-2-2-2s-2 .7-2 2c0 1.1-.4 2-1 2-.5 0-1-.9-1-2zM19.5 49c-.3-.5-1.8-1.1-3.3-1.1-1.9-.1-2.1-.3-.9-.6 1.5-.4 1.7-1.1 1.2-3.1-.4-1.5-.8-2.9-1-3-.9-.9-2.5 1.1-2.6 3.1-.1 1.8-.2 1.8-.6.4-.6-2.3 1.4-4.7 3.8-4.7 1.1 0 1.9-.4 1.9-1 0-.5 1.2-.9 2.8-.9 1.5.1 2 .3 1 .6-1.4.3-1.6 1.3-1.1 5.9.6 5.1.2 6.6-1.2 4.4zM4 27.1c0-9.3.3-17.6.6-18.5C5 7.5 6.4 7 9.4 7.1c2.2.1 3.3.3 2.4.6-1 .2-1.8 1.3-1.8 2.4 0 1-.4 1.9-1 1.9s-1 6-1 16c0 15.3-.1 16-2 16s-2-.7-2-16.9zM33 42c0-.5 1.8-1 4-1s4 .5 4 1c0 .6-1.8 1-4 1s-4-.4-4-1zM10 36c0-3.9.1-4 3.5-4 2.8 0 3.5-.4 3.5-2 0-2.5 2.8-2.6 4.6-.2.7.9 1.4 2.6 1.4 3.8 0 1.7-.7 2.1-4.1 2.2-2.8.1-4.7.9-5.9 2.2-2.5 2.9-3 2.5-3-2zM30 38c0-1.1-.7-2-1.5-2s-1.5-.7-1.5-1.5c0-1.2 1.6-1.5 8-1.5s8 .3 8 1.5c0 .8-.7 1.5-1.5 1.5s-1.5.9-1.5 2c0 1.7-.7 2-5 2s-5-.3-5-2zM57.6 35.9c.3-.6.1-1.5-.6-1.9-.9-.6-.8-1.4.5-3.4 2.2-3.3 4.5-3.4 4.5-.2 0 2.8-1.6 4.3-2.3 2.4-.3-.7-.6-.1-.6 1.5-.1 1.5-.6 2.7-1.2 2.7-.5 0-.7-.5-.3-1.1zM29 28c0-.6 3.8-1 9.4-1 5.3 0 9.8.4 10.1 1 .4.6-3 1-9.4 1C33 29 29 28.6 29 28zM14.5 25c.5-1.6.3-1.9-1.1-1.3-1.2.4-1.5.3-1-.5.9-1.6 3.3-1.5 3.9.1.3.6.6 0 .6-1.5.1-4.4 2.1-3.2 2.1 1.2 0 3.6-.2 4-2.6 4-2.1 0-2.4-.4-1.9-2zM31.5 24.7c-3.1-3.5-2.8-3.7 7-3.7 7.7 0 9.7.3 10.2 1.5.7 2 .3 2.3-3.5 3.1-2.1.4-3.2.3-3.2-.5 0-.6.7-1.1 1.5-1.1s1.5-.4 1.5-1c0-.5-2.5-1-5.5-1s-5.5.5-5.5 1c0 .6.5 1 1 1 .6 0 1 .5 1 1 0 1.4-3.3 1.2-4.5-.3z"/>
        </g>
        <g fill="#082879">
            <path d="M20.6 43.4C19.4 40.2 20 38 22 38c1.1 0 2 .7 2 1.5 0 1.2 1.8 1.5 10.5 1.5 9.8 0 10.5.1 10.5 2s-.7 2-11.9 2c-9.9 0-12-.3-12.5-1.6z"/>
            <path d="M30 39c0-.5 2.3-1 5-1 2.8 0 5 .4 5 .8s-2.2.9-5 1c-2.8.1-5-.2-5-.8zM22.3 35.3c.9-.2 2.5-.2 3.5 0 .9.3.1.5-1.8.5-1.9 0-2.7-.2-1.7-.5zM21 27.5c0-2.8.4-3.5 2-3.5 1.1 0 2 .7 2 1.5 0 1 1 1.5 3 1.5 2.3 0 3 .4 3 2 0 1.7-.7 2-5 2h-5v-3.5zM19.4 15.4c2.5-2.2 3.5-2.4 14.9-2.4 9.1.1 12.7.4 14.1 1.5 1.1.8 1.8 1.7 1.5 1.9-.2.2-7.8.6-16.9.8l-16.4.6 2.8-2.4z"/>
        </g>
        <g fill="#22325a">
            <path d="M47.6 33.4c-.3-.9-.6-2.6-.6-3.8 0-2.2.2-2.2 3.5-1.2 1.9.6 3.1 1.2 2.5 1.4-.5.2-.7 1.5-.4 2.8.5 2.1.3 2.4-1.9 2.4-1.4 0-2.8-.7-3.1-1.6zM21 24.5V19h3.5c2.4 0 3.5.5 3.5 1.5 0 .8-.6 1.5-1.4 1.5-.8 0-1.6 1.3-1.8 3-.4 2.4-.1 3 1.4 3 1 0 1.8.5 1.8 1 0 .6-1.6 1-3.5 1H21v-5.5z"/>
        </g>
        <g fill="#454141">
            <path d="M4.3 61.8c-.4-.7-1.3-2.3-2-3.5-1.1-2.2-1-2.3 2.3-2.3 2.2 0 3.7.6 4 1.5.5 1.3 4 1.5 22.5 1.5 17.4 0 21.9-.3 21.9-1.3 0-2-2.2-4.5-4.5-5-1.3-.3-.9-.5 1.2-.6 2.3-.1 3.3.4 3.8 1.9.8 2.5 2.5 2.6 2.5.1 0-1.2-1.1-2.2-3.2-2.9l-3.3-1 3.3-.1c2.5-.1 3.2-.5 3.2-2.1 0-2.6-2.5-2.6-5.8.1-1.9 1.5-2.8 1.7-3.1.8-.2-.7.1-1.5.8-1.7.6-.2 1.1-1.5 1.1-2.8 0-1.7.6-2.4 1.9-2.4 1.1 0 2.1.5 2.3 1.2.2.6 1.2.9 2.1.5 1.6-.6 1.8-1.5 2.2-10.7.1-3.3 4.5-4.3 4.5-1.1 0 2.3-1.5 2.8-2.3.9-.8-2-.8 3.3.1 7.7l.7 4 .6-5c.5-3.9.6-2.9.7 4.7.2 6.7.6 9.8 1.5 10.1.8.3.5 1.2-1.1 2.9-1.2 1.3-1.9 2.8-1.5 3.1.3.4-.1.7-1 .7-1 0-1.7.5-1.7 1 0 1.6-52.7 1.3-53.7-.2zm54.4-14c-.2-1.8-.4-.6-.4 2.7 0 3.3.2 4.8.4 3.3s.2-4.2 0-6z"/>
            <path d="M4 45c0-5.3.3-7 1.4-7C7 38 8 41 8 45.8c0 1.7.4 3.2.9 3.2s1.1.7 1.5 1.5c.4 1.2-.3 1.5-2.9 1.5H4v-7zM42.5 41.5c1.7-.8 2.4-1.4 1.8-1.5-.7 0-1.3-.6-1.3-1.4 0-.8.6-1.7 1.3-1.9.6-.3 0-.6-1.5-.6-4.4-.1-3.2-2.1 1.3-2.1h4l-.3 4.3c-.3 4.2-.3 4.2-4.3 4.4l-4 .2 3-1.4zM10.1 36.8c0-1.8.3-2.7.6-2 .2.6 1.1 1.2 1.9 1.2 1.8 0 1.8.8 0 2.6-2.1 2.1-2.6 1.7-2.5-1.8zM51 35.5c0-1.9.5-3.5 1-3.5.6 0 1 1.6 1 3.5s-.4 3.5-1 3.5c-.5 0-1-1.6-1-3.5zM15 35c0-.5.7-1 1.5-1s1.5.5 1.5 1c0 .6-.7 1-1.5 1s-1.5-.4-1.5-1zM18.7 33c-.9-1.3-1.7-3.4-1.8-4.5 0-1.1-.3-1.4-.6-.7-.8 1.9-2.3 1.4-2.3-.8 0-1.1.7-2.3 1.5-2.6.8-.4 1.5-1.2 1.5-2s.7-1.4 1.6-1.4c1.3 0 1.5.9 1.2 5-.1 2.8.1 5.1.6 5.3.4.1.7 1.2.4 2.2-.3 1.9-.5 1.8-2.1-.5zM6 10.2C6 5 7.8 4 16.5 4c7.2 0 7.7-.1 7.2-2s0-2 7.4-2c7.2 0 7.9.2 7.9 2 0 1.9.7 2 11 2 7.5 0 11-.4 11-1.1 0-.8.5-.8 1.5.1.8.7 1.5 2.1 1.5 3.1C64 7.9 62.8 8 37.4 8H10.7l-2.3 2.8L6 13.5v-3.3zM30 3c0-.5-.9-1-2-1s-2 .5-2 1c0 .6.9 1 2 1s2-.4 2-1zm6 0c0-.5-.9-1-2-1s-2 .5-2 1c0 .6.9 1 2 1s2-.4 2-1z"/>
        </g>
        <g fill="#113287">
            <path d="M39 43.6c0-.8 1.3-1.7 3-2.1 1.6-.4 2.8-1.2 2.7-1.8-.1-.6.6-1.3 1.6-1.5 1.4-.3 1.7.3 1.7 3.2 0 3.6 0 3.6-4.5 3.6-3.2 0-4.5-.4-4.5-1.4zM17 42.1c0-2.5 1.4-4.1 3.6-4.1 1.3 0 2.4.4 2.4.9s.7 1.7 1.6 2.5c1.4 1.5 1.1 1.6-3 1.6-2.5 0-4.6-.4-4.6-.9zM48.4 35.1c-.8-3.6-2.3-4.1-14.1-4.1-7.3 0-9.3-.3-9.3-1.4 0-2 3.2-2.6 13.7-2.6 7.1 0 9.5.4 10.5 1.5.7.9 1.9 2.2 2.6 3 .6.7 1.2 2.5 1.2 3.9 0 3.9-3.9 3.6-4.6-.3zM46.3 24.3c.9-.2 2.5-.2 3.5 0 .9.3.1.5-1.8.5-1.9 0-2.7-.2-1.7-.5zM17 20.1c0-2.7 2.9-6.1 5.2-6.1 1.3 0 .8 5.4-.6 7.3-2.1 2.8-4.6 2.2-4.6-1.2zM28 15.6c0-1.7 3.7-2.7 6.8-1.9 4.1 1 2.6 3.3-2.3 3.3-3.2 0-4.5-.4-4.5-1.4z"/>
        </g>
        <g fill="#4e4d4d">
            <path d="M19.2 48.8c-1.8-1.8-1.4-3.8.7-3.8 3.3 0 5.1 1.1 5.1 3.1 0 2.2-3.8 2.7-5.8.7zM35.8 42.3c6.5-.3 9.2-.7 9.1-1.6-.4-3 .2-4.7 1.6-4.7 1 0 1.5 1.1 1.5 3.5V43l-10.7-.2-10.8-.2 9.3-.3zM10 38c0-1.1.5-2 1-2 .6 0 1 .9 1 2s-.4 2-1 2c-.5 0-1-.9-1-2z"/>
            <path d="M30 39.1c0-.5 1.2-1.4 2.8-1.9 2.5-1 2.4-1.1-1.8-1.2l-4.5-.2 3-1.3c3.4-1.6 9.5-2 9.5-.6 0 .5 1 1.2 2.3 1.4 1.3.3.8.5-1.5.6C36 36 34.3 38 38 38c1.1 0 2 .4 2 .8s-2.2.9-5 1c-2.7.1-5-.2-5-.7zM19.5 34c-1.8-2-1.7-2 1.8-2 3 0 3.7.4 3.7 2 0 1.3-.7 2-1.8 2s-2.7-.9-3.7-2zM30 23c0-.5-.7-1-1.5-1s-1.5-.7-1.5-1.5c0-1.1 1.2-1.5 5-1.5s5 .4 5 1.5c0 .8-.7 1.5-1.5 1.5s-1.5.5-1.5 1c0 .6-.9 1-2 1s-2-.4-2-1z"/>
        </g>
        <g fill="#0b3ab3">
            <path d="M47.2 20c-1.8-2.9-1.6-6.4.4-5.6.9.3 1.9.6 2.3.6.8 0 3.1 4.5 3.1 6 0 1.8-4.5 1-5.8-1zM20 16c.6-1.2 2.1-2 3.5-2 1.8 0 2.5.5 2.5 2 0 1.6-.7 2-3.5 2-3.3 0-3.5-.2-2.5-2z"/>
        </g>
        <path d="M45 23.6c0-.9-.7-1.6-1.5-1.6s-1.5-.7-1.5-1.5c0-1 1.1-1.5 3.5-1.5 2.6 0 3.5-.4 3.5-1.7 0-1.4.3-1.3 2.1.5 1.1 1.3 1.9 3.2 1.7 4.5-.2 1.8-1.1 2.3-4 2.5-2.9.2-3.8 0-3.8-1.2z" fill="#39527a"/>
        <g fill="#605b5a">
            <path d="M7.3 54.7C5 52.4 4 46 6 46c.6 0 1 .7 1 1.5S7.5 49 8.1 49c1 0 3.3 2.2 7 6.8 1.9 2.3-5.4 1.3-7.8-1.1zM19.4 48.2c-.6-.4-1.3-1.5-1.7-2.4-.5-1.4-.1-1.8 1.8-1.8 2 0 2.5.5 2.5 2.5 0 2.6-.7 3-2.6 1.7zM60.7 42.8c.8-4.6 1.3-4.8 1.3-.5 0 2.1-.4 3.7-1 3.7-.5 0-.7-1.4-.3-3.2zM58.1 40l.1-4.5 1.1 3.3c.7 2.4.7 3.6-.1 4.4-.9.9-1.2.1-1.1-3.2zM45.4 23.5c.4-1-.1-1.5-1.4-1.5-1.1 0-2-.4-2-1 0-.5 1.6-1 3.5-1 3.1 0 3.5.3 3.5 2.5 0 1.9-.5 2.5-2.1 2.5-1.5 0-1.9-.5-1.5-1.5zM57.8 5.9c-2.5-1.4-2.4-5.9 0-5.9C60.1 0 63 3 63 5.3c0 1.9-2.6 2.2-5.2.6zM1 4.2C1 2.8 4.5 0 6.3 0 7.4 0 8 .8 8 2.5 8 4.7 7.6 5 4.5 5 2.6 5 1 4.6 1 4.2z"/>
        </g>
        <g fill="#0542dd">
            <path d="M21 42.5c0-2.6.3-3.3 1.5-2.9.8.4 1.5 1 1.5 1.5s4.7.9 10.5.9c8.7 0 10.5-.3 10.5-1.5 0-.8.7-1.5 1.5-1.5 1 0 1.5 1.1 1.5 3.5V46H21v-3.5zM21 28.5c0-2.4.5-3.5 1.5-3.5.8 0 1.5.7 1.5 1.5 0 1.2 2 1.5 11.6 1.5 10.9 0 15.4.9 15.4 3 0 .6-6 1-15 1H21v-3.5zM19.1 17.2c1.8-2.8 3.6-3.2 17-3.2 10.3 0 11.8.2 13.4 2 1.8 2 1.7 2-9.6 2-6.3 0-13.8.3-16.8.7-5.2.6-5.3.6-4-1.5z"/>
        </g>
        <g fill="#7b7370">
            <path d="M4.8 59.9C3.1 58.1 3.1 58 6.5 58c1.9 0 3.5-.4 3.5-1 0-.5-.4-1-1-1-.5 0-1-1.1-1-2.5 0-2-.5-2.5-2.5-2.5H3V30C3 12 2.8 9 1.5 9c-2.1 0-1.9-4.3.3-6.3 1-1 2.2-1.4 2.5-1 .4.3.7.1.7-.5C5 .5 5.7 0 6.5 0c1.8 0 2.1 5 .3 6.8-.9.9-.7 1.2 1.1 1.2 2.1 0 2.1.1.7 2.2C7.3 12 7 15.8 7 30.5v18.1l4 3.7c2.3 2 4.5 3.7 5 3.7.6 0 1 .5 1 1 0 .6 6.8 1 18.5 1S54 57.6 54 57c0-.5 2.1-1 4.8-1h4.7l-3.2 3-3.2 3-25.3-.1c-23.6-.1-25.4-.2-27-2z"/>
            <path d="M56.7 54.3c-.4-.3-.7-2.3-.7-4.4 0-2.1-.6-3.9-1.2-4.2-.7-.2-1-.8-.6-1.2.4-.4 1.4-.5 2.3-.2 1.1.5 1.5 2.1 1.5 5.7 0 5.1-.1 5.5-1.3 4.3zM60 49.6c0-3 .5-5.8 1-6.1.6-.4 1 1.7 1 5.4 0 3.4-.4 6.1-1 6.1-.5 0-1-2.4-1-5.4zM58.1 39.5l.1-5 1 3.8c.7 2.8.7 4.2-.1 5-.8.8-1.1-.2-1-3.8zM59 5c0-1.1.6-2 1.4-2 .7 0 1.6.9 1.9 2 .4 1.5 0 2-1.4 2-1.2 0-1.9-.7-1.9-2zM17 2c0-1.9.7-2 11-2s11 .1 11 2c0 1.1-.7 2-1.5 2S36 3.3 36 2.5 35.1 1 34 1s-2 .7-2 1.5S31.6 4 31 4c-.5 0-1-.7-1-1.5S29.1 1 28 1s-2 .7-2 1.5S25.6 4 25 4c-.5 0-1-.7-1-1.5S23.1 1 22 1s-2 .7-2 1.5S19.3 4 18.5 4 17 3.1 17 2z"/>
        </g>
        <path d="M49 46c0-.5-1.6-1-3.5-1s-3.5-.4-3.5-1c0-.5.7-1 1.5-1 1 0 1.5-1.1 1.5-3.5s-.5-3.5-1.5-3.5c-.8 0-1.5-.6-1.5-1.4 0-.9 1.5-1.6 4.3-1.9 5.2-.5 6.7 1 6.7 7 0 3.2.4 4.3 1.5 4.3.8 0 1.5.5 1.5 1.1 0 .6-.9.8-2 .4s-2-.2-2 .4c0 .6-.7 1.1-1.5 1.1s-1.5-.4-1.5-1z" fill="#596ca0"/>
        <g fill="#225aea">
            <path d="M45.8 33.6C42.9 31.4 43.5 29 47 29c2.4 0 3.3.6 4 2.6.6 1.4 1 2.7 1 3 0 .9-4.6.2-6.2-1zM44 17c0-2.3 3.8-2.8 5.8-.8 2 2 1.4 2.8-2.3 2.8-2.8 0-3.5-.4-3.5-2z"/>
        </g>
        <path d="M17 23.5c0-2.5.8-4.4 2.5-6.1 2.5-2.5 2.7-2.5 16.1-2.2 12.1.3 13.7.5 15 2.2.8 1.1 1.4 3 1.4 4.3 0 1.9-.5 2.3-3 2.3-1.6 0-3-.4-3-1s-4.3-1-11-1H24v2.5c0 2.2-.4 2.5-3.5 2.5-3.3 0-3.5-.2-3.5-3.5z" fill="#0f6eff"/>
        <path d="M18 46.1c-1.6-3-1.2-5.9.9-6.6 2.4-.7 5.1.3 5.1 2 0 .8.8 1.6 1.8 1.8.9.3.2.5-1.5.6-2.6.1-3.3.5-3.3 2.1 0 2.5-1.6 2.6-3 .1z" fill="#476fd3"/>
        <g fill="#8d8685">
            <path d="M3.3 58.4c-4-3.1-4.4-6.4-1-6.4C5.4 52 8 54.9 8 58.3c0 3.3-.6 3.3-4.7.1zM55 60c0-.5-1.3-1-2.9-1-1.6 0-3.1-.6-3.5-1.5-.4-1 .1-1.5 1.5-1.5 2.8 0 1.9-2.3-1.2-3.1-2.4-.7-2.4-.7.3-.8 1.8-.1 3.2.6 4 1.9 1 1.5 2.4 2 5.8 2l4.5.1-2.8 2.4C57.8 61.1 55 61.8 55 60zM45.8 49.3c1.5-.3 2.2-1.1 2.2-2.8 0-1.3.3-3 .6-3.9.8-2 3.4-2.1 3.4-.1 0 .9.9 1.5 2.5 1.5 2.1 0 2.5.5 2.4 2.8-.1 1.5-.3 2-.6 1-.7-2.7-3.1-2.9-5.7-.3-1.4 1.4-3.5 2.4-4.8 2.4l-2.3-.2 2.3-.4zM58 41.6c0-1.4.5-2.6 1-2.6.6 0 1 .9 1 1.9 0 1.1-.4 2.3-1 2.6-.6.4-1-.5-1-1.9zM4.2 9.5C4.4 7 4.2 5 3.9 5c-.4 0-.2-1.1.4-2.5C5.7-.5 9-.9 9 2c0 1.5.7 2 2.5 2 2.5 0 3.7 3 1.3 3-1.7.1-6.8 4.6-6.8 6 0 .5-.5 1-1.1 1-.7 0-1-1.7-.7-4.5zM57 3.5c0-4.1.3-4.2 3-1.5 2.8 2.8 2.6 5-.5 5-2.2 0-2.5-.4-2.5-3.5zM29.7 1.9c-.3-1.3-.1-1.9.6-1.6 1.5.5 2.2 3.7.9 3.7-.5 0-1.2-.9-1.5-2.1z"/>
        </g>
        <g fill="#178bff">
            <path d="M17 26c0-6.6 1.3-9 4.8-8.9 2.7 0 2.7.1.5 1.1-1.6.8-2.3 2-2.2 3.7 0 2.6 0 2.6 1.1.4.8-1.7 2-2.3 4.5-2.3 1.8 0 3.3.5 3.3 1 0 .6-1.2 1-2.6 1-2.4 0-2.5.3-2.2 4.3l.3 4.2-3.8.3-3.7.3V26zM46.4 23.5c-.4-.8-1.7-1.5-3-1.5s-2.4-.5-2.4-1.1c0-.8 1.5-.9 4.5-.5 3.6.6 4.5.4 4.5-.7 0-.9-1.4-1.7-3.5-2.1-1.9-.4-3.5-1.1-3.5-1.6 0-2.1 6.5-.2 8.2 2.4.4.6.8 2.3.8 3.9 0 2.2-.4 2.7-2.5 2.7-1.4 0-2.8-.7-3.1-1.5z"/>
        </g>
        <g fill="#4277fd">
            <path d="M21 44c0-2 .5-3 1.5-3 .8 0 1.5.5 1.5 1 0 .6 4.2 1 10.6 1 9.7 0 10.6-.2 11.1-2 1-3.7 3.3-2.3 3.3 2v4H21v-3zM18 25.1c0-1.1-.3-2.6-.6-3.5-.8-2.1 3.9-6.6 7.1-6.6 3.7 0 3.1 1.3-1.6 3.2-3.9 1.6-4.1 2-3.7 5.3.2 1.9 0 3.5-.4 3.5s-.8-.9-.8-1.9z"/>
            <path d="M22 26.1c0-.5-.3-1.6-.6-2.5-.4-1.1 0-1.6 1.2-1.6 1.5 0 1.6-.2.5-.9-1-.7-.7-.9 1.2-.8 2.8.2 3.8 1.7 1.2 1.7-.9 0-1.5.9-1.5 2.5 0 1.4-.4 2.5-1 2.5-.5 0-1-.4-1-.9zM46 23.5c0-.8-.7-1.5-1.5-1.5s-1.5-.4-1.5-.8c0-1.2 6.3-.2 7.3 1.2.5.6.6-.1.2-1.7-.4-1.9-.2-2.6.5-2.2.5.3 1 1.9 1 3.6 0 2.6-.3 2.9-3 2.9-2 0-3-.5-3-1.5z"/>
        </g>
        <g fill="#16a5ff">
            <path d="M46 37.5c0-1.3-2-1.5-12-1.5-11.5 0-12.2-.1-14.5-2.5-2.4-2.3-3.3-5.4-1.7-5.6.4 0 1.8-.2 3.1-.5 1.4-.2 2.8.1 3.1.7.4.6 5.7 1.3 12.5 1.6 13.1.7 15.5 1.7 15.5 6.5 0 2.4-.4 2.8-3 2.8-2 0-3-.5-3-1.5zM22 16c0-1.3 24-1.3 26 0 1 .7-3 1-12.2 1-8.6 0-13.8-.4-13.8-1z"/>
        </g>
        <path d="M34.4 36.3c-11.3-.3-12.4-.5-14.8-2.8-2-1.8-2.6-3.4-2.6-6.5 0-4.5 1.4-5.4 2.4-1.5.8 3 2.6 2.4 2.6-.9S25.8 20 35.4 20c7.9 0 13.3 1.7 11.3 3.6-.4.4-.7.2-.7-.4 0-.9-3.3-1.2-11-1.2H24v7h11.3C47.8 29 51 30.1 51 34.6c0 1.9-.5 2.4-2.2 2.2-1.3-.1-7.8-.4-14.4-.5zM35 33c-6.3-.3-10.4-.7-9-.9 2.4-.3 2.4-.4-.5-1-1.6-.4-3.9-.5-5-.2-1.7.4-1.6.6 1 1.7 1.9.8 7 1.3 14 1.2l11-.2L35 33z" fill="#289fff"/>
        <path d="M18 32.1c-2.2-4.2-.7-15.1 2.1-15.1.6 0 .6.7-.1 1.9-1.3 2.5-1.3 13.1 0 13.1.6 0 1 .5 1 1 0 1.7-1.9 1.1-3-.9z" fill="#7c8ebe"/>
        <path d="M23 23c1-1.8 2.1-2 11.8-2 7.1 0 11.2.4 12 1.2 1.5 1.5 1.6 2.8.2 2.8-.5 0-1-.7-1-1.5 0-1.2-1.9-1.5-11-1.5s-11 .3-11 1.5c0 .8-.5 1.5-1 1.5-.7 0-.7-.6 0-2z" fill="#57c4c5"/>
        <g fill="#2fb6fd">
            <path d="M46 39c0-1.6-.1-3.1-.2-3.1-.2-.1-5-.5-10.8-.9l-10.5-.7 11.8-.1c14.4-.2 16.1-2.1 2-2.3-12.9-.2-15.7-.8-16.1-3.7-.2-1.2.1-2.2.7-2.2s1.1.7 1.1 1.5c0 1.2 1.9 1.5 11.4 1.5 9.9 0 11.7.3 14 2.1 2.1 1.7 2.6 2.9 2.6 6.5 0 4.2-.1 4.4-3 4.4-2.7 0-3-.3-3-3z"/>
            <path d="M19.5 33c-.7-1.2.2-1.2 3 0 1.9.8 1.9.9-.2.9-1.2.1-2.5-.3-2.8-.9zM18.1 20.8c-.1-1.7.7-3.3 2.1-4.2 2.5-1.8 3.9-1.2 1.5.7-.9.6-2.1 2.3-2.6 3.7l-1 2.5v-2.7z"/>
        </g>
        <g fill="#aa9f9b">
            <path d="M3.3 57.3L0 53.7V7.2l3.6-3.6C7 .2 7.6 0 13.6 0c5.7 0 6.4.2 6.4 2 0 1.3.7 2 2 2s2-.7 2-2c0-1.1.5-2 1-2 .6 0 1 .8 1 1.9 0 1.6.8 1.9 5 1.9s5-.3 5-1.9C36 .1 36.9 0 47.3 0h11.4l1.4 2.8c.7 1.5 1.5 3 1.7 3.4.2.4-11.7.9-26.4 1l-26.8.3-1.6 3c-.8 1.7-1.8 3.2-2.2 3.3-.5.2-.8 10.1-.8 21.9v21.5l28.5-.3c15.7-.3 28.5-.3 28.5-.2 0 .2-.9 1.2-2 2.3-1.9 1.9-3.3 2-27.2 1.9H6.5l-3.2-3.6zM7 5.5C7 4.7 6.3 4 5.5 4S4 4.7 4 5.5 4.7 7 5.5 7 7 6.3 7 5.5z"/>
            <path d="M56.3 49.5c0-2.7.2-3.8.4-2.2.2 1.5.2 3.7 0 5-.2 1.2-.4 0-.4-2.8zM61.3 48.5c0-3.3.2-4.5.4-2.7.2 1.8.2 4.5 0 6s-.4 0-.4-3.3z"/>
        </g>
        <g fill="#2dd7ff">
            <path d="M44 46.5c0-1.4.5-2.5 1-2.5.6 0 1-.7 1-1.5 0-1 1-1.5 3-1.5 2.4 0 3 .4 3 2.1 0 3.7-1.9 5.9-5 5.9-2.5 0-3-.4-3-2.5zM49.6 34.6c-.4-1.7-1.5-2.6-3.6-3.1-3.3-.7-4.1-2.5-1.1-2.5 2.6 0 7.1 3.8 7.1 6.1 0 2.7-1.7 2.4-2.4-.5zM45.7 22.9c-.4-1.7-.3-1.9.6-1 1.5 1.5 4.7 1.4 4.7-.1 0-2.3-1.9-4.2-5.2-5.5-1.9-.6-2.5-1.2-1.5-1.2 2.1-.1 5.9 1.7 6.9 3.3.4.6.8 2.3.8 3.9 0 2.3-.4 2.7-2.9 2.7-2.1 0-3-.6-3.4-2.1z"/>
        </g>
        <g fill="#48c3fb">
            <path d="M45.4 44.8c.3-1.3.6-3.9.6-5.8.1-3.1.2-3.3 1.4-1.7 1.6 2.1 2.6 2.2 2.6.2 0-.8.5-1.5 1.1-1.5.6 0 .9 2.1.7 5.3-.3 5.1-.4 5.2-3.7 5.5-3.1.3-3.3.2-2.7-2zm4.6.2c0-.5-.7-1-1.5-1s-1.5.5-1.5 1c0 .6.7 1 1.5 1s1.5-.4 1.5-1zM20.2 34.4c-1.2-.8-2.2-2.2-2.2-3 0-1.4.2-1.4 1.5-.1.8.9 2.8 1.8 4.5 2.2 1.6.4 3 1.1 3 1.6 0 1.5-4.4 1-6.8-.7zM23.2 29.8c-1.4-1.4-1.5-4.7-.2-6.8.7-1.1 1-.5 1 2.3 0 3 .4 3.7 2 3.7 1.1 0 2 .5 2 1 0 1.4-3.3 1.3-4.8-.2zM20 16.9c0-1.1 4.3-2.2 6.7-1.7 1.1.2.2.8-2.4 1.5-2.4.6-4.3.7-4.3.2z"/>
        </g>
        <g fill="#749bfd">
            <path d="M36.7 31.3C21 30.9 20.3 29 35.9 29c7.9 0 11.2.4 12.7 1.5 1 .8 1.7 1.4 1.4 1.3-.3-.2-6.3-.4-13.3-.5zM28.3 15.3c3.7-.2 9.6-.2 13 0 3.4.2.4.3-6.8.3s-9.9-.1-6.2-.3z"/>
        </g>
        <g fill="#46e0ff">
            <path d="M20.2 48.4c-1.4-1-2.2-2.5-2.2-4.5 0-2.6.3-2.9 3-2.9 2 0 3 .5 3 1.5 0 1.2 1.9 1.5 11 1.5h11v-4c0-3.3-.3-4-2-4-1.1 0-2-.4-2-1 0-.5.9-1 2-1 2.7 0 4.3 3.6 3.7 8.1-.4 2.9-.2 3.9.9 3.9 2.3 0 2-13.6-.3-14.9-1-.6-1.3-1.1-.7-1.1.6 0 1.9.9 2.9 2 2.4 2.7 1.6 14.7-1.1 16.7s-26.2 1.8-29.2-.3zM20.2 34.4c-2-1.3-2.2-2.3-2-8.7l.2-7.2.3 6.4c.4 6 1.8 9.1 4.2 9.1.6 0 1.1.5 1.1 1 0 1.4-1.2 1.2-3.8-.6z"/>
        </g>
        <g fill="#95c8ca">
            <path d="M41 35c0-.5.9-1 2-1s2 .5 2 1c0 .6-.9 1-2 1s-2-.4-2-1zM19.2 33.8c-.7-.7-1.1-2.3-1.1-3.7l.2-2.6.4 2.5c.3 1.3 1.2 3 2.1 3.7 1 .7 1.2 1.3.7 1.3-.6 0-1.6-.5-2.3-1.2zM48.2 24.3c1.5-.2 2.9-1.2 3.1-2.1.3-1.2.5-1 .6.6.1 1.9-.4 2.2-3.1 2.1-3-.2-3-.2-.6-.6z"/>
        </g>
        <g fill="#3ffcff">
            <path d="M40.3 48.3c1.5-.2 3.7-.2 5 0 1.2.2 0 .4-2.8.4-2.7 0-3.8-.2-2.2-.4zM48.8 46.4c.6-.3 1.2-1.6 1.2-2.9 0-1.3.5-2.7 1.1-3 .7-.5.9.5.7 2.6-.2 2.5-.8 3.4-2.3 3.6-1.1.2-1.4 0-.7-.3zM38 45.1c0-.6 1.8-1.1 3.9-1.1 2.2 0 4.2-.6 4.5-1.2.3-.7.5-.4.3.7-.2 1.6-1.1 2.1-4.5 2.3-2.5.2-4.2-.1-4.2-.7zM20.5 34.3c-1.8-1.4-1.8-1.5-.2-.9 1 .3 7 .6 13.3.6 7.4 0 11.3.4 10.9 1-.4.6-5.2 1-11.3 1-8.3-.1-11.2-.4-12.7-1.7zM30.3 30.3c3.7-.2 9.6-.2 13 0 3.4.2.4.3-6.8.3s-9.9-.1-6.2-.3z"/>
        </g>
        <g fill="#4ff8fe">
            <path d="M20 48c-1.1-1.1-2-3.1-2-4.5 0-2.1.5-2.5 3-2.5 2 0 3 .5 3 1.5 0 .9.9 1.5 2.5 1.5 1.4 0 2.5.5 2.5 1 0 1.8-4.6 1.1-6.5-1-2.1-2.3-3.5-1.8-2.8.9.5 2 2.9 3 7.3 3.2 2.3 0 2.3.1.5.9-3.3 1.4-5.4 1.1-7.5-1zM43 49c-2.5-.8-2.5-.8.5-.9 4.1-.2 6.5-2.3 7-6.1.6-4.9 1.5-4.9 1.5-.2 0 2.9-.6 4.8-2 6.2-2.1 2.1-3.1 2.3-7 1z"/>
            <path d="M42.5 45c-1.8-.8-1.7-.9.7-.9 1.4-.1 2.9-.7 3.2-1.3.3-.7.5-.4.3.6-.2 2.3-1.5 2.8-4.2 1.6zM41.5 35c2.8-1.2 3.7-1.2 3 0-.3.6-1.6 1-2.8.9-2.1 0-2.1-.1-.2-.9zM50.8 22c.2-1.6.6-3 .8-3 .2 0 .4 1.4.4 3 0 1.7-.4 3-.8 3-.5 0-.7-1.3-.4-3z"/>
        </g>
        <g fill="#c3c6c6">
            <path d="M44 49.1c0-.5 1.4-1.2 3-1.6 1.7-.4 3-1.3 3-2.1s.5-1.4 1-1.4c1.6 0 1.2 1.8-1 4-2 2-6 2.8-6 1.1zM20.4 34.4c-1.9-1.5-1.9-1.6.1-.8 1.1.4 7 1.1 13 1.4l11 .7-11.1.1c-8.7.2-11.4-.1-13-1.4z"/>
        </g>
        <g fill="#64feff">
            <path d="M20.3 48.5C18 46.9 17 41 18.9 41c.5 0 .9 1.2.9 2.6 0 1.5.6 3 1.3 3.5 1.5 1 23.2 1.2 26.5.3 1.3-.3 2.6-1.9 3.2-3.7.9-2.9 1-3 1.1-.7 0 1.4-.6 3.4-1.5 4.5-1.3 1.8-2.9 2-14.7 2.3-10.9.2-13.6 0-15.4-1.3z"/>
            <path d="M24.5 45c-1.3-.5 2.2-.9 9.7-.9l11.7-.1.4-4.2.4-4.3.1 4.6.2 4.6-4.6.7c-6.4.8-15.5.6-17.9-.4z"/>
        </g>
        <g fill="#8afcfd">
            <path d="M19.2 47.8c-1.5-1.5-1.6-6.8-.1-6.8.6 0 .8.8.4 2-.3 1-.1 2.8.5 4 1.2 2.3 1 2.6-.8.8zM51 39.7l.5-7.2.3 6.4c.2 3.5-.1 6.8-.5 7.2-.4.4-.6-2.4-.3-6.4zM29.8 44.3c2.8-.2 7.6-.2 10.5 0 2.8.2.5.3-5.3.3s-8.1-.1-5.2-.3z"/>
        </g>
        <g fill="#e4dad4">
            <path d="M3.7 57.5L1.9 55H6c3.6 0 4 .2 4 2.5 0 3.4-3.8 3.3-6.3 0zM52 3.5c0-2.1.5-2.5 2.9-2.5C57.8 1 61 3.2 61 5.1c0 .5-2 .9-4.5.9-4.1 0-4.5-.2-4.5-2.5z"/>
        </g>
        <path d="M7 59c0-.5-.6-1-1.3-1-.8 0-2.1-.8-3-1.8C1.2 54.6 1 51.3 1 30.4v-24l2.8-2.7C6.3 1.3 7.4 1 13.3 1c5.3 0 6.7.3 6.7 1.5 0 .8.9 1.5 2 1.5s2-.7 2-1.5.5-1.5 1-1.5c.6 0 1 .7 1 1.5S26.9 4 28 4s2-.7 2-1.5.5-1.5 1-1.5c.6 0 1 .7 1 1.5S32.9 4 34 4s2-.7 2-1.5C36 1.3 37.9 1 46.8 1c7 0 10.2.4 9.2 1-1.3.8-1.2 1 .1 1.5.9.3 2.2.5 2.9.3.7-.2 1.5.3 1.7 1 .4.9-5 1.2-24.9 1.2C3.2 6 6 3.8 6 29.1v18.5l4.3 4.2 4.3 4.2h23.3c23.3 0 23.4 0 21.6 2-1.7 1.9-3.1 2-27.2 2C16.1 60 7 59.6 7 59z" fill="#f0e7e1"/>
        <g fill="#f6f3f0">
            <path d="M56.5 59c.4-.6-2-1-6.4-1-4.1 0-7.1-.4-7.1-1 0-1.2 13-1.3 14.9-.1 1.4.9.7 3.1-1 3.1-.6 0-.7-.4-.4-1zM4.3 55.5C1.7 52.7 1.2 48 3.5 48c.8 0 3.1 1.8 5.1 4 3.4 3.7 4 4 9 4 3 0 5.4.5 5.4 1 0 .6-3.4 1-8.2.9-7.4 0-8.5-.3-10.5-2.4zM2 7.4c0-1.4.4-2.3 1-1.9.6.3 1 1.5 1 2.6 0 1-.4 1.9-1 1.9-.5 0-1-1.2-1-2.6zM22 5c0-.5 1.4-1 3-1 1.7 0 3 .5 3 1 0 .6-1.3 1-3 1-1.6 0-3-.4-3-1zM40 5c0-.5.9-1 2-1s2 .5 2 1c0 .6-.9 1-2 1s-2-.4-2-1zM9.3 1.3c2-.2 5.4-.2 7.5 0 2 .2.3.4-3.8.4s-5.8-.2-3.7-.4zM41.3 1.3c3.2-.2 8.1-.2 11 0 2.9.2.3.3-5.8.3-6 0-8.4-.1-5.2-.3z"/>
        </g>
        <path d="M28.3 49.3c3.7-.2 9.6-.2 13 0 3.4.2.4.3-6.8.3s-9.9-.1-6.2-.3z" fill="#deffff"/>
        <path d="M20 57c0-.6 5-1 13-1s13 .4 13 1-5 1-13 1-13-.4-13-1z" fill="#fff"/>
    </symbol>
</svg>